<svg id="svg" version="1.1" xmlns="http://www.w3.org/2000/svg" xmlns:xlink="http://www.w3.org/1999/xlink" width="400" height="400" viewBox="0, 0, 400,400"><g id="svgg"><path id="path0" d="M184.721 45.925 C 133.258 51.516,88.961 81.860,65.871 127.340 C 63.826 131.367,59.981 139.884,59.981 140.385 C 59.981 140.466,61.795 138.722,64.011 136.511 C 127.869 72.804,274.972 73.644,336.145 138.063 L 338.831 140.892 337.358 137.353 C 316.700 87.717,271.746 53.698,216.973 46.251 C 210.975 45.436,191.078 45.235,184.721 45.925 M59.981 245.777 C 59.981 248.020,69.359 265.991,74.729 274.039 C 135.640 365.333,270.526 362.396,327.388 268.539 C 331.204 262.239,338.519 247.457,338.519 246.044 C 338.519 245.918,336.362 247.918,333.726 250.488 C 268.855 313.738,122.543 312.231,61.949 247.690 C 60.867 246.537,59.981 245.676,59.981 245.777 " stroke="none" fill="#fc7c14" fill-rule="evenodd"></path><path id="path1" d="M253.889 156.670 L 250.047 157.602 250.047 163.525 L 250.047 169.447 246.111 169.447 L 242.174 169.447 242.174 172.446 L 242.174 175.445 245.923 175.445 L 249.672 175.445 249.672 190.924 C 249.672 203.435,249.779 206.815,250.231 208.550 C 252.303 216.502,257.973 219.939,266.502 218.412 C 270.334 217.726,270.216 217.857,270.005 214.548 L 269.833 211.851 266.754 212.068 C 258.441 212.655,257.919 211.366,257.919 190.235 L 257.919 175.445 264.292 175.445 L 270.665 175.445 270.665 172.446 L 270.665 169.447 264.301 169.447 L 257.936 169.447 257.834 162.592 L 257.732 155.737 253.889 156.670 M157.802 168.711 C 153.262 169.400,148.377 172.209,145.709 175.663 C 143.628 178.357,143.205 178.297,143.205 175.310 C 143.205 173.999,143.098 172.143,142.967 171.186 L 142.728 169.447 139.160 169.447 L 135.592 169.447 135.837 174.004 C 135.972 176.511,136.082 191.947,136.082 208.306 L 136.082 238.051 140.019 238.051 L 143.955 238.051 143.955 224.742 C 143.955 209.741,143.772 210.421,146.946 213.645 C 156.128 222.970,172.707 219.221,178.778 206.446 C 187.746 187.576,175.746 165.987,157.802 168.711 M354.639 168.859 C 350.343 170.054,346.422 173.362,344.873 177.097 C 343.440 180.555,343.018 179.922,343.018 174.321 L 343.018 169.447 339.363 169.448 L 335.708 169.448 335.708 193.534 L 335.708 217.619 339.738 217.726 L 343.768 217.832 343.768 204.114 C 343.768 195.989,343.936 189.298,344.181 187.701 C 345.253 180.720,349.861 176.442,356.653 176.124 L 359.134 176.007 359.136 172.165 L 359.138 168.322 357.732 168.356 C 356.959 168.374,355.567 168.601,354.639 168.859 M298.594 168.940 C 285.762 171.613,278.731 181.908,279.384 197.068 C 280.120 214.156,295.087 222.756,314.821 217.431 C 319.136 216.267,319.099 216.313,318.343 213.022 C 317.852 210.889,317.595 210.348,317.153 210.524 C 302.455 216.368,288.460 210.452,287.293 197.903 L 287.053 195.314 304.402 195.314 L 321.751 195.314 321.539 190.722 C 320.853 175.858,310.873 166.383,298.594 168.940 M52.106 191.659 C 52.101 221.391,51.772 224.952,48.703 228.439 C 47.044 230.323,43.692 231.975,40.841 232.312 C 38.941 232.537,38.927 232.549,39.125 233.702 C 39.235 234.341,39.437 235.665,39.574 236.645 C 39.866 238.732,40.342 238.845,44.611 237.842 C 50.638 236.426,54.684 233.414,57.282 228.411 C 60.407 222.392,60.356 222.954,60.356 194.317 L 60.356 169.072 56.232 169.072 L 52.109 169.072 52.106 191.659 M77.692 186.598 C 77.858 207.155,78.198 209.051,82.581 213.900 C 89.453 221.501,104.043 219.904,109.386 210.965 C 110.271 209.484,110.965 209.649,110.968 211.340 C 110.969 212.113,111.078 213.885,111.210 215.276 L 111.449 217.807 114.942 217.807 L 118.436 217.807 118.452 193.627 L 118.468 169.447 114.360 169.447 L 110.252 169.447 110.140 186.036 L 110.028 202.624 108.978 204.762 C 105.063 212.735,92.731 214.526,88.430 207.746 C 86.122 204.107,86.089 203.814,85.937 185.848 L 85.799 169.447 81.676 169.447 L 77.553 169.447 77.692 186.598 M189.108 170.091 C 189.249 170.458,193.402 180.753,198.337 192.967 C 203.699 206.238,207.309 215.667,207.308 216.397 C 207.302 220.712,200.382 228.954,194.283 231.911 C 192.788 232.636,191.565 233.369,191.565 233.539 C 191.565 233.793,192.694 237.736,193.254 239.438 C 193.498 240.181,197.698 238.544,200.704 236.534 C 209.334 230.761,212.690 224.440,227.311 186.410 L 233.833 169.447 229.602 169.447 L 225.372 169.447 224.250 172.727 C 217.714 191.851,213.707 203.780,213.170 205.717 C 212.260 208.995,211.772 208.703,210.347 204.030 C 209.671 201.813,206.561 193.168,203.435 184.817 L 197.751 169.634 193.301 169.528 C 189.163 169.430,188.869 169.469,189.108 170.091 M306.457 174.724 C 310.956 176.407,313.864 180.644,314.093 185.848 L 314.229 188.941 300.831 188.941 L 287.432 188.941 287.621 186.593 C 288.330 177.760,298.107 171.600,306.457 174.724 M164.088 175.881 C 177.679 180.966,176.512 208.052,162.531 212.022 C 151.444 215.170,143.981 208.002,143.965 194.189 C 143.949 179.995,153.022 171.741,164.088 175.881 " stroke="none" fill="#c8c8c8" fill-rule="evenodd"></path><path id="path2" d="M81.350 0.611 C 38.920 6.366,6.109 39.361,0.576 81.837 C -0.297 88.544,-0.297 311.456,0.576 318.163 C 6.136 360.850,39.150 393.864,81.837 399.424 C 88.544 400.297,311.456 400.297,318.163 399.424 C 360.846 393.864,393.864 360.846,399.424 318.163 C 400.297 311.456,400.297 88.544,399.424 81.837 C 393.863 39.147,360.853 6.137,318.163 0.576 C 311.747 -0.259,87.524 -0.226,81.350 0.611 M314.354 14.441 C 335.946 19.953,337.134 49.585,316.071 57.266 C 302.394 62.253,286.823 51.078,286.791 36.250 C 286.760 22.025,300.738 10.965,314.354 14.441 M215.183 45.896 C 270.305 51.998,317.532 87.518,338.067 138.320 L 339.646 142.225 335.615 138.085 C 272.865 73.632,128.460 72.912,64.386 136.732 C 61.551 139.556,59.231 141.756,59.231 141.621 C 59.231 140.904,64.102 130.004,66.229 125.961 C 88.678 83.291,128.689 54.485,176.061 46.885 C 180.000 46.253,182.775 45.952,191.565 45.205 C 195.040 44.910,210.307 45.356,215.183 45.896 M71.390 50.917 C 86.109 57.805,83.223 78.441,67.121 81.435 C 57.337 83.255,47.362 73.120,49.142 63.168 C 50.998 52.792,62.206 46.620,71.390 50.917 M257.919 162.512 L 257.919 169.447 264.480 169.447 L 271.040 169.447 271.040 172.634 L 271.040 175.820 264.480 175.820 L 257.919 175.820 257.931 189.035 C 257.950 210.566,258.477 212.008,266.233 211.745 L 269.860 211.621 270.075 212.699 C 271.085 217.759,270.343 218.512,264.027 218.833 C 256.510 219.217,252.288 216.441,250.206 209.747 C 249.714 208.165,249.630 205.371,249.663 191.846 L 249.703 175.820 245.751 175.820 L 241.799 175.820 241.799 172.634 L 241.799 169.447 245.726 169.447 L 249.653 169.447 249.756 163.393 L 249.859 157.339 253.233 156.499 C 258.457 155.200,257.919 154.510,257.919 162.512 M165.901 168.896 C 185.420 173.908,187.896 207.369,169.437 216.688 C 161.239 220.826,151.409 219.352,146.005 213.174 L 144.330 211.259 144.330 224.655 L 144.330 238.051 140.019 238.051 L 135.708 238.051 135.703 205.155 C 135.701 187.062,135.595 171.626,135.467 170.853 L 135.235 169.447 139.220 169.447 L 143.205 169.447 143.227 172.165 C 143.239 173.660,143.368 175.557,143.514 176.381 L 143.780 177.879 144.638 176.491 C 148.441 170.336,158.089 166.890,165.901 168.896 M307.216 169.149 C 315.878 171.004,321.204 178.958,321.896 191.072 L 322.139 195.314 304.837 195.314 L 287.535 195.314 287.535 197.149 C 287.535 208.932,300.420 215.462,314.698 210.915 C 316.339 210.392,317.727 210.010,317.783 210.066 C 318.287 210.570,319.232 216.160,318.851 216.385 C 316.171 217.962,306.192 219.523,300.831 219.203 C 284.870 218.251,275.466 203.500,279.998 186.526 C 283.508 173.382,294.428 166.410,307.216 169.149 M359.513 172.205 L 359.513 176.087 356.705 176.299 C 351.398 176.700,347.047 179.753,345.201 184.372 C 344.370 186.450,344.345 186.903,344.220 202.156 L 344.091 217.807 339.777 217.807 L 335.462 217.807 335.585 193.627 L 335.708 169.447 339.363 169.447 L 343.018 169.447 343.018 174.133 C 343.018 179.352,343.276 179.773,344.644 176.785 C 346.946 171.756,351.987 168.410,357.357 168.347 L 359.513 168.322 359.513 172.205 M60.450 191.471 C 60.575 221.370,60.605 220.229,59.620 223.470 C 56.855 232.572,51.656 237.161,42.661 238.436 C 39.462 238.890,39.708 239.103,39.176 235.430 L 38.742 232.437 40.083 232.209 C 46.118 231.184,49.449 228.530,50.863 223.618 C 51.443 221.605,51.525 218.622,51.643 195.220 L 51.776 169.072 56.066 169.072 L 60.356 169.072 60.450 191.471 M118.785 193.627 L 118.650 218.181 115.035 218.182 C 110.894 218.182,110.965 218.240,110.965 214.824 C 110.965 213.630,110.860 212.124,110.731 211.478 L 110.496 210.304 108.300 212.700 C 99.604 222.190,84.893 221.003,79.810 210.401 C 77.674 205.947,77.533 204.575,77.330 186.223 L 77.145 169.447 81.497 169.447 L 85.848 169.447 85.854 181.912 C 85.864 201.707,86.410 205.313,89.936 208.867 C 95.420 214.395,106.161 211.493,109.078 203.696 C 109.802 201.762,109.841 200.830,109.841 185.366 L 109.841 169.072 114.380 169.072 L 118.919 169.072 118.785 193.627 M198.254 170.103 C 200.471 175.718,209.072 199.208,210.299 202.999 C 211.167 205.679,211.934 207.931,212.003 208.001 C 212.072 208.072,212.565 206.723,213.097 205.002 C 213.630 203.282,216.531 194.578,219.543 185.661 L 225.021 169.447 229.474 169.447 C 231.923 169.447,233.927 169.576,233.927 169.733 C 233.927 170.244,219.851 206.602,217.666 211.737 C 210.275 229.097,204.563 236.301,195.722 239.408 L 193.252 240.276 192.430 237.627 C 190.918 232.751,190.798 233.178,194.117 231.611 C 200.806 228.455,207.959 219.257,206.851 215.237 C 206.644 214.485,202.509 204.086,197.662 192.127 C 192.815 180.169,188.766 170.089,188.664 169.728 C 188.495 169.129,188.881 169.072,193.163 169.072 L 197.847 169.072 198.254 170.103 M298.782 174.535 C 293.001 176.113,288.688 180.985,287.770 186.973 L 287.526 188.566 300.644 188.566 L 313.763 188.566 313.985 187.679 C 315.768 180.576,306.381 172.461,298.782 174.535 M156.718 175.480 C 147.222 177.341,142.493 187.259,144.694 200.699 C 146.790 213.493,164.742 216.489,170.592 205.021 C 177.891 190.714,169.555 172.964,156.718 175.480 M339.023 245.642 C 297.446 353.437,153.257 374.729,81.297 283.700 C 72.919 273.101,59.231 248.814,59.231 244.545 C 59.231 244.458,61.298 246.465,63.824 249.006 C 127.082 312.642,271.417 312.877,334.208 249.447 C 337.095 246.531,339.497 244.123,339.547 244.097 C 339.597 244.070,339.361 244.766,339.023 245.642 M94.209 333.123 C 120.059 338.889,124.155 374.760,100.281 386.305 C 76.328 397.889,50.917 373.268,61.877 349.095 C 67.350 337.025,81.147 330.209,94.209 333.123 " stroke="none" fill="#4c4c4c" fill-rule="evenodd"></path><path id="path3" d="M303.955 14.451 C 289.963 17.844,282.724 33.564,289.308 46.259 C 296.374 59.887,313.926 62.512,324.869 51.577 C 340.499 35.959,325.447 9.240,303.955 14.451 M61.386 49.868 C 46.810 53.550,44.727 73.416,58.224 80.020 C 72.218 86.866,86.978 70.307,78.628 57.130 C 75.113 51.585,67.418 48.344,61.386 49.868 M249.837 157.560 C 249.735 157.827,249.703 160.652,249.766 163.840 L 249.880 169.634 249.964 163.569 C 250.045 157.607,250.061 157.500,250.890 157.340 L 251.734 157.178 250.879 157.127 C 250.408 157.099,249.940 157.294,249.837 157.560 M157.919 168.581 C 158.280 168.675,158.871 168.675,159.231 168.581 C 159.592 168.487,159.297 168.409,158.575 168.409 C 157.854 168.409,157.559 168.487,157.919 168.581 M162.418 168.581 C 162.779 168.675,163.369 168.675,163.730 168.581 C 164.091 168.487,163.796 168.409,163.074 168.409 C 162.352 168.409,162.057 168.487,162.418 168.581 M359.278 172.259 C 359.279 174.527,359.341 175.406,359.415 174.213 C 359.490 173.020,359.489 171.164,359.414 170.089 C 359.338 169.014,359.277 169.991,359.278 172.259 M51.910 192.502 C 51.910 205.492,51.957 210.752,52.015 204.190 C 52.072 197.629,52.072 187.001,52.015 180.573 C 51.957 174.144,51.910 179.513,51.910 192.502 M109.930 185.286 L 110.020 201.500 110.122 185.473 L 110.224 169.447 114.340 169.447 L 118.456 169.447 118.557 186.973 L 118.658 204.499 118.748 186.785 L 118.838 169.072 114.339 169.072 L 109.841 169.072 109.930 185.286 M188.564 169.353 C 188.561 169.849,190.906 175.480,191.054 175.332 C 191.132 175.253,190.689 173.958,190.069 172.454 C 189.448 170.950,188.941 169.658,188.941 169.583 C 188.941 169.508,190.888 169.447,193.267 169.447 L 197.594 169.447 198.302 171.040 C 199.171 172.997,199.289 172.652,198.460 170.579 L 197.857 169.072 193.211 169.072 C 190.656 169.072,188.565 169.199,188.564 169.353 M295.220 169.447 C 294.748 169.650,294.678 169.769,295.033 169.769 C 295.342 169.769,295.933 169.624,296.345 169.447 C 296.817 169.244,296.887 169.125,296.532 169.125 C 296.223 169.125,295.633 169.270,295.220 169.447 M350.695 170.159 C 348.300 171.532,345.837 174.200,344.704 176.646 C 344.217 177.696,343.597 178.697,343.325 178.869 C 342.938 179.114,342.958 179.184,343.417 179.188 C 343.779 179.192,344.338 178.389,344.873 177.097 C 345.924 174.563,348.871 171.425,351.468 170.074 C 352.491 169.542,353.158 169.101,352.952 169.093 C 352.746 169.085,351.730 169.565,350.695 170.159 M77.397 184.067 C 77.397 192.212,77.446 195.544,77.507 191.471 C 77.567 187.399,77.567 180.736,77.507 176.664 C 77.446 172.591,77.397 175.923,77.397 184.067 M142.917 170.572 C 142.917 171.293,142.994 171.589,143.089 171.228 C 143.183 170.867,143.183 170.276,143.089 169.916 C 142.994 169.555,142.917 169.850,142.917 170.572 M223.850 172.866 C 223.211 174.770,222.753 176.392,222.831 176.471 C 222.910 176.549,223.496 175.055,224.135 173.151 C 224.774 171.247,225.232 169.624,225.154 169.546 C 225.075 169.468,224.489 170.962,223.850 172.866 M241.876 172.540 L 241.799 175.820 245.829 175.741 L 249.859 175.662 246.032 175.541 L 242.204 175.419 242.078 172.339 L 241.952 169.260 241.876 172.540 M270.665 172.437 L 270.665 175.427 264.199 175.539 L 257.732 175.652 264.386 175.736 L 271.040 175.820 271.040 172.634 C 271.040 170.881,270.956 169.447,270.853 169.447 C 270.750 169.447,270.665 170.793,270.665 172.437 M309.228 170.024 C 309.921 170.325,310.596 170.566,310.727 170.558 C 311.215 170.531,309.069 169.474,308.529 169.475 C 308.219 169.476,308.534 169.723,309.228 170.024 M170.572 171.009 C 173.267 172.552,176.530 175.915,178.213 178.883 C 178.952 180.188,179.560 181.108,179.563 180.927 C 179.606 178.508,171.262 169.805,168.920 169.825 C 168.695 169.827,169.438 170.360,170.572 171.009 M291.471 171.017 C 287.897 172.860,281.506 179.962,281.543 182.051 C 281.546 182.232,282.166 181.284,282.922 179.944 C 284.818 176.578,288.613 172.864,291.851 171.202 C 293.292 170.463,294.302 169.859,294.096 169.858 C 293.889 169.858,292.709 170.380,291.471 171.017 M335.636 172.259 C 335.638 173.496,335.708 173.957,335.792 173.283 C 335.875 172.609,335.874 171.597,335.788 171.034 C 335.702 170.470,335.634 171.022,335.636 172.259 M149.494 171.706 C 147.624 172.944,145.058 175.566,144.326 176.984 C 143.785 178.034,144.046 177.774,145.990 175.323 C 146.779 174.328,148.331 172.913,149.439 172.177 C 151.235 170.985,151.722 170.572,151.330 170.572 C 151.262 170.572,150.436 171.082,149.494 171.706 M311.153 170.740 C 311.153 170.843,311.651 171.185,312.260 171.500 C 313.880 172.338,316.874 175.460,318.259 177.757 C 318.922 178.857,319.366 179.448,319.245 179.071 C 318.814 177.720,316.294 174.287,314.768 172.972 C 313.248 171.661,311.153 170.368,311.153 170.740 M232.469 172.863 C 232.238 173.525,232.115 174.133,232.195 174.213 C 232.275 174.293,232.530 173.817,232.761 173.154 C 232.992 172.492,233.115 171.884,233.035 171.804 C 232.955 171.724,232.700 172.200,232.469 172.863 M297.312 174.562 C 292.353 176.297,288.168 181.227,287.724 185.853 L 287.554 187.629 287.899 186.043 C 289.108 180.479,293.347 176.001,298.782 174.547 C 299.916 174.243,300.422 173.992,299.906 173.988 C 299.391 173.984,298.223 174.243,297.312 174.562 M303.901 174.336 C 308.600 175.266,312.755 179.392,313.784 184.151 L 314.131 185.754 313.991 184.168 C 313.561 179.315,307.809 173.807,303.360 173.987 C 302.604 174.017,302.742 174.107,303.901 174.336 M154.452 175.695 C 149.345 177.477,144.974 182.606,144.519 187.350 L 144.349 189.128 144.708 187.458 C 145.946 181.699,151.072 176.587,156.718 175.480 C 158.026 175.223,158.144 175.147,157.263 175.129 C 156.645 175.117,155.380 175.371,154.452 175.695 M161.225 175.448 C 166.533 176.347,170.832 180.883,172.593 187.441 C 172.897 188.575,173.158 189.118,173.171 188.648 C 173.339 182.839,166.051 174.919,160.717 175.114 C 159.708 175.151,159.791 175.206,161.225 175.448 M135.887 206.748 C 135.887 224.067,135.933 231.098,135.989 222.371 C 136.045 213.644,136.045 199.474,135.989 190.881 C 135.932 182.288,135.887 189.428,135.887 206.748 M143.292 176.570 C 143.292 177.291,143.369 177.587,143.464 177.226 C 143.558 176.865,143.558 176.275,143.464 175.914 C 143.369 175.553,143.292 175.848,143.292 176.570 M230.595 177.736 C 230.364 178.399,230.240 179.006,230.320 179.086 C 230.401 179.167,230.655 178.690,230.886 178.028 C 231.117 177.365,231.240 176.758,231.160 176.677 C 231.080 176.597,230.826 177.074,230.595 177.736 M350.515 177.733 C 348.054 179.207,344.783 182.959,345.412 183.587 C 345.538 183.714,345.642 183.636,345.642 183.414 C 345.642 182.500,348.785 179.126,350.614 178.078 C 351.694 177.458,352.409 176.951,352.202 176.950 C 351.996 176.948,351.237 177.301,350.515 177.733 M228.720 182.610 C 228.489 183.272,228.366 183.880,228.446 183.960 C 228.526 184.040,228.781 183.564,229.012 182.901 C 229.243 182.239,229.366 181.631,229.286 181.551 C 229.206 181.471,228.951 181.947,228.720 182.610 M280.642 184.301 C 280.310 185.277,280.050 186.256,280.065 186.477 C 280.080 186.698,280.417 185.965,280.813 184.847 C 281.210 183.730,281.470 182.751,281.391 182.671 C 281.311 182.592,280.974 183.326,280.642 184.301 M203.027 183.693 C 203.164 184.208,203.434 184.883,203.625 185.192 C 203.866 185.583,203.896 185.469,203.721 184.817 C 203.584 184.302,203.314 183.627,203.123 183.318 C 202.882 182.927,202.852 183.041,203.027 183.693 M218.602 188.236 C 217.963 190.140,217.505 191.763,217.583 191.841 C 217.661 191.919,218.248 190.425,218.887 188.521 C 219.525 186.617,219.984 184.995,219.905 184.916 C 219.827 184.838,219.240 186.332,218.602 188.236 M204.151 186.692 C 204.289 187.207,204.558 187.882,204.749 188.191 C 204.991 188.582,205.020 188.468,204.846 187.816 C 204.708 187.301,204.439 186.626,204.248 186.317 C 204.006 185.926,203.977 186.040,204.151 186.692 M226.846 187.483 C 226.615 188.146,226.491 188.753,226.572 188.833 C 226.652 188.914,226.906 188.437,227.137 187.775 C 227.368 187.112,227.492 186.504,227.411 186.424 C 227.331 186.344,227.077 186.821,226.846 187.483 M195.775 187.441 C 196.652 189.846,198.057 193.071,198.175 192.953 C 198.341 192.787,196.170 187.409,195.809 187.090 C 195.677 186.974,195.662 187.132,195.775 187.441 M313.777 188.186 C 313.777 188.421,308.938 188.594,300.562 188.660 L 287.348 188.763 300.750 188.852 C 312.452 188.930,314.152 188.870,314.152 188.379 C 314.152 188.069,314.067 187.816,313.964 187.816 C 313.861 187.816,313.777 187.983,313.777 188.186 M205.276 189.691 C 205.414 190.206,205.683 190.881,205.874 191.190 C 206.115 191.581,206.145 191.467,205.971 190.815 C 205.833 190.300,205.564 189.625,205.373 189.316 C 205.131 188.925,205.102 189.039,205.276 189.691 M144.102 194.189 C 144.102 196.973,144.161 198.112,144.233 196.720 C 144.305 195.328,144.305 193.051,144.233 191.659 C 144.161 190.267,144.102 191.406,144.102 194.189 M343.938 203.561 C 343.938 211.500,343.988 214.747,344.048 210.778 C 344.109 206.809,344.109 200.314,344.048 196.345 C 343.988 192.376,343.938 195.623,343.938 203.561 M173.098 194.470 C 172.827 201.021,171.379 205.023,168.089 208.313 C 160.443 215.959,146.664 211.675,144.687 201.038 L 144.355 199.250 144.509 201.189 C 144.979 207.125,150.546 212.046,157.263 212.465 C 164.628 212.925,170.162 209.027,172.484 201.743 C 173.221 199.434,174.028 189.691,173.483 189.691 C 173.380 189.691,173.207 191.842,173.098 194.470 M321.778 192.502 C 321.779 194.152,321.845 194.780,321.924 193.898 C 322.004 193.017,322.003 191.667,321.922 190.899 C 321.841 190.131,321.777 190.853,321.778 192.502 M224.971 192.357 C 224.740 193.019,224.617 193.627,224.697 193.707 C 224.777 193.787,225.032 193.311,225.263 192.648 C 225.494 191.986,225.617 191.378,225.537 191.298 C 225.457 191.218,225.202 191.694,224.971 192.357 M206.400 192.690 C 206.538 193.205,206.807 193.880,206.999 194.189 C 207.240 194.580,207.270 194.466,207.095 193.814 C 206.957 193.299,206.688 192.624,206.497 192.315 C 206.256 191.924,206.226 192.038,206.400 192.690 M279.050 195.876 C 279.051 197.938,279.114 198.734,279.190 197.644 C 279.266 196.555,279.265 194.868,279.188 193.896 C 279.111 192.923,279.049 193.814,279.050 195.876 M207.525 195.689 C 207.663 196.204,207.932 196.879,208.123 197.188 C 208.365 197.579,208.394 197.465,208.220 196.813 C 208.082 196.298,207.813 195.623,207.622 195.314 C 207.380 194.923,207.351 195.037,207.525 195.689 M287.267 197.001 C 287.270 198.032,287.343 198.409,287.429 197.839 C 287.515 197.269,287.513 196.426,287.424 195.965 C 287.335 195.504,287.265 195.970,287.267 197.001 M85.964 198.126 C 85.966 199.363,86.036 199.824,86.120 199.150 C 86.203 198.476,86.202 197.464,86.116 196.901 C 86.030 196.337,85.962 196.888,85.964 198.126 M223.097 197.230 C 222.866 197.893,222.743 198.500,222.823 198.580 C 222.903 198.661,223.158 198.184,223.389 197.522 C 223.619 196.859,223.743 196.251,223.663 196.171 C 223.582 196.091,223.328 196.568,223.097 197.230 M287.560 199.850 C 287.531 200.540,288.308 202.914,288.499 202.722 C 288.570 202.652,288.393 201.842,288.106 200.922 C 287.820 200.003,287.574 199.520,287.560 199.850 M221.223 202.104 C 220.992 202.766,220.868 203.374,220.948 203.454 C 221.029 203.534,221.283 203.058,221.514 202.395 C 221.745 201.733,221.868 201.125,221.788 201.045 C 221.708 200.965,221.453 201.441,221.223 202.104 M279.708 202.437 C 279.702 202.746,279.928 203.505,280.211 204.124 C 280.874 205.572,280.884 204.898,280.225 203.187 C 279.947 202.465,279.714 202.127,279.708 202.437 M86.785 204.124 C 87.430 207.191,91.230 211.453,93.294 211.426 C 93.632 211.421,93.233 211.104,92.409 210.722 C 90.332 209.758,88.605 207.822,87.492 205.211 C 86.973 203.994,86.656 203.505,86.785 204.124 M258.014 204.499 C 258.018 205.323,258.095 205.617,258.185 205.150 C 258.274 204.684,258.271 204.009,258.177 203.651 C 258.083 203.292,258.010 203.674,258.014 204.499 M288.660 203.401 C 288.660 203.836,290.333 206.398,291.431 207.645 C 292.337 208.673,296.444 211.436,297.059 211.430 C 297.285 211.428,296.626 210.941,295.595 210.347 C 293.294 209.022,291.153 206.972,289.733 204.732 C 289.143 203.801,288.660 203.202,288.660 203.401 M178.721 206.592 C 177.131 209.916,173.688 213.894,171.072 215.427 C 169.384 216.415,168.813 217.035,170.291 216.274 C 174.157 214.283,181.571 204.983,180.263 203.765 C 180.191 203.697,179.496 204.969,178.721 206.592 M219.358 206.799 C 218.711 208.386,218.244 209.746,218.319 209.821 C 218.394 209.896,218.984 208.659,219.630 207.072 C 220.277 205.484,220.744 204.124,220.669 204.049 C 220.594 203.974,220.004 205.212,219.358 206.799 M108.431 205.201 C 107.722 206.756,105.653 208.831,103.684 209.960 C 101.691 211.104,101.562 211.482,103.509 210.476 C 105.728 209.328,109.616 205.086,109.007 204.477 C 108.914 204.384,108.655 204.710,108.431 205.201 M202.952 205.061 C 203.281 206.278,204.414 208.832,204.559 208.686 C 204.644 208.601,204.283 207.624,203.757 206.515 C 203.231 205.406,202.869 204.752,202.952 205.061 M210.737 205.061 C 210.737 205.370,210.882 205.961,211.059 206.373 C 211.262 206.846,211.381 206.915,211.381 206.560 C 211.381 206.251,211.236 205.661,211.059 205.248 C 210.856 204.776,210.737 204.706,210.737 205.061 M280.787 205.667 C 280.787 207.996,289.648 217.078,291.897 217.054 C 292.075 217.052,291.140 216.364,289.819 215.526 C 286.810 213.618,284.014 210.728,282.193 207.645 C 281.420 206.336,280.787 205.446,280.787 205.667 M78.396 206.560 C 78.390 206.870,78.616 207.629,78.899 208.247 C 79.562 209.695,79.572 209.022,78.913 207.310 C 78.635 206.589,78.402 206.251,78.396 206.560 M258.671 208.385 C 258.670 208.667,259.324 209.553,260.125 210.353 C 260.925 211.154,261.811 211.808,262.093 211.807 C 262.375 211.807,262.056 211.471,261.384 211.061 C 260.712 210.651,259.827 209.766,259.417 209.094 C 259.007 208.422,258.671 208.103,258.671 208.385 M250.073 209.228 C 249.974 211.499,254.733 217.750,256.597 217.798 C 256.798 217.803,256.544 217.528,256.035 217.188 C 253.416 215.439,251.840 213.345,250.591 209.955 C 250.321 209.222,250.088 208.895,250.073 209.228 M79.492 209.767 C 79.409 211.747,86.168 218.205,88.285 218.168 C 88.491 218.165,87.677 217.629,86.476 216.977 C 84.176 215.730,81.399 212.949,80.214 210.707 C 79.826 209.973,79.501 209.550,79.492 209.767 M109.386 210.965 C 108.418 212.586,105.735 215.014,103.302 216.472 C 102.077 217.206,101.250 217.807,101.463 217.807 C 102.386 217.807,106.451 214.756,108.405 212.597 C 110.349 210.448,110.544 210.323,110.697 211.122 C 110.847 211.909,110.868 211.894,110.914 210.965 C 110.945 210.349,110.772 209.934,110.484 209.934 C 110.219 209.934,109.725 210.398,109.386 210.965 M315.464 210.716 C 314.433 211.114,314.077 211.345,314.673 211.229 C 315.852 211.000,318.322 209.997,317.713 209.994 C 317.507 209.993,316.495 210.318,315.464 210.716 M216.932 212.621 C 216.383 213.893,215.994 214.994,216.068 215.068 C 216.141 215.141,216.652 214.162,217.203 212.892 C 217.754 211.621,218.143 210.520,218.068 210.445 C 217.992 210.369,217.481 211.349,216.932 212.621 M144.124 224.742 C 144.124 232.165,144.174 235.255,144.236 231.608 C 144.297 227.962,144.297 221.889,144.236 218.112 C 144.175 214.336,144.124 217.320,144.124 224.742 M145.371 212.421 C 146.928 214.645,150.651 217.372,152.952 217.974 C 153.468 218.109,152.815 217.686,151.502 217.034 C 150.067 216.321,148.204 214.930,146.831 213.547 C 145.576 212.282,144.918 211.775,145.371 212.421 M264.011 212.082 C 264.784 212.163,266.050 212.163,266.823 212.082 C 267.596 212.001,266.963 211.935,265.417 211.935 C 263.871 211.935,263.238 212.001,264.011 212.082 M300.750 212.442 C 301.111 212.536,301.701 212.536,302.062 212.442 C 302.423 212.348,302.127 212.271,301.406 212.271 C 300.684 212.271,300.389 212.348,300.750 212.442 M304.873 212.457 C 305.647 212.538,306.912 212.538,307.685 212.457 C 308.458 212.376,307.826 212.310,306.279 212.310 C 304.733 212.310,304.100 212.376,304.873 212.457 M206.222 212.933 C 206.208 213.037,206.436 213.880,206.729 214.808 C 207.021 215.736,207.264 216.157,207.268 215.745 C 207.275 215.092,206.287 212.437,206.222 212.933 M270.023 214.620 C 270.026 215.651,270.098 216.029,270.185 215.459 C 270.271 214.889,270.269 214.045,270.180 213.584 C 270.091 213.123,270.020 213.590,270.023 214.620 M60.482 216.307 C 60.482 217.854,60.548 218.486,60.629 217.713 C 60.710 216.940,60.710 215.675,60.629 214.902 C 60.548 214.128,60.482 214.761,60.482 216.307 M111.067 215.933 C 111.067 216.860,111.141 217.240,111.230 216.776 C 111.319 216.312,111.319 215.553,111.230 215.089 C 111.141 214.625,111.067 215.005,111.067 215.933 M118.463 216.669 L 118.463 217.780 114.808 217.902 L 111.153 218.025 114.995 218.103 L 118.838 218.182 118.838 216.870 C 118.838 216.148,118.754 215.558,118.650 215.558 C 118.547 215.558,118.463 216.058,118.463 216.669 M214.879 217.263 C 213.749 219.587,213.875 219.913,215.039 217.677 C 215.559 216.677,215.920 215.795,215.842 215.717 C 215.763 215.638,215.330 216.334,214.879 217.263 M166.823 217.451 C 165.895 217.830,165.389 218.146,165.698 218.152 C 166.007 218.157,166.935 217.843,167.760 217.453 C 169.675 216.546,169.035 216.545,166.823 217.451 M51.446 219.681 C 51.446 220.403,51.523 220.698,51.617 220.337 C 51.712 219.977,51.712 219.386,51.617 219.025 C 51.523 218.664,51.446 218.960,51.446 219.681 M264.761 218.815 C 265.122 218.909,265.712 218.909,266.073 218.815 C 266.434 218.721,266.139 218.644,265.417 218.644 C 264.695 218.644,264.400 218.721,264.761 218.815 M300.937 219.208 C 302.020 219.284,303.791 219.284,304.873 219.208 C 305.956 219.132,305.070 219.070,302.905 219.070 C 300.740 219.070,299.855 219.132,300.937 219.208 M203.937 223.054 C 202.324 225.569,197.796 229.739,195.082 231.212 C 193.869 231.869,193.056 232.412,193.274 232.417 C 195.363 232.470,203.034 225.741,204.908 222.212 C 205.792 220.547,205.237 221.028,203.937 223.054 M211.202 224.649 C 209.085 228.768,204.890 233.670,201.460 236.033 C 199.209 237.583,198.803 238.078,200.633 237.041 C 202.670 235.887,207.139 231.415,209.093 228.576 C 211.003 225.800,212.349 223.430,212.016 223.430 C 211.912 223.430,211.546 223.978,211.202 224.649 M57.180 228.591 C 55.496 231.862,53.880 233.628,50.964 235.385 C 49.841 236.062,49.231 236.516,49.608 236.396 C 51.092 235.922,54.509 233.338,55.564 231.892 C 56.752 230.263,58.990 226.062,58.780 225.853 C 58.711 225.784,57.991 227.016,57.180 228.591 M48.922 227.638 C 48.264 228.539,46.866 229.693,45.548 230.423 C 42.931 231.872,43.042 232.106,45.706 230.755 C 47.353 229.921,50.234 227.125,50.234 226.362 C 50.234 225.886,50.126 225.991,48.922 227.638 M191.613 232.765 C 191.330 232.944,191.162 233.243,191.238 233.431 C 191.315 233.618,191.673 233.468,192.034 233.099 C 192.722 232.394,192.490 232.209,191.613 232.765 M192.368 237.301 C 192.368 237.610,192.513 238.201,192.690 238.613 C 192.893 239.086,193.012 239.155,193.012 238.800 C 193.012 238.491,192.867 237.901,192.690 237.488 C 192.487 237.016,192.368 236.946,192.368 237.301 M194.939 239.363 C 194.217 239.641,193.880 239.873,194.189 239.880 C 194.499 239.886,195.258 239.659,195.876 239.376 C 197.324 238.713,196.651 238.704,194.939 239.363 M81.029 333.253 C 60.120 338.387,52.240 364.351,66.844 379.990 C 85.217 399.663,117.839 385.724,116.086 358.950 C 114.927 341.257,98.242 329.027,81.029 333.253 " stroke="none" fill="#74747b" fill-rule="evenodd"></path><path id="path4" d="M196.157 45.265 C 197.962 45.334,200.914 45.334,202.718 45.265 C 204.522 45.196,203.046 45.140,199.438 45.140 C 195.829 45.140,194.353 45.196,196.157 45.265 M187.535 45.619 C 187.896 45.714,188.486 45.714,188.847 45.619 C 189.208 45.525,188.913 45.448,188.191 45.448 C 187.470 45.448,187.174 45.525,187.535 45.619 M209.653 45.619 C 210.014 45.714,210.604 45.714,210.965 45.619 C 211.326 45.525,211.031 45.448,210.309 45.448 C 209.588 45.448,209.292 45.525,209.653 45.619 M183.411 45.994 C 183.772 46.088,184.363 46.088,184.724 45.994 C 185.084 45.900,184.789 45.823,184.067 45.823 C 183.346 45.823,183.051 45.900,183.411 45.994 M246.832 53.071 C 248.259 53.570,249.492 53.913,249.571 53.835 C 249.744 53.661,245.193 52.097,244.632 52.137 C 244.414 52.152,245.404 52.573,246.832 53.071 M256.000 56.428 C 257.109 56.954,258.086 57.315,258.171 57.231 C 258.256 57.146,257.601 56.783,256.717 56.426 C 254.152 55.389,253.812 55.390,256.000 56.428 M140.206 57.170 C 139.691 57.464,139.438 57.705,139.644 57.705 C 139.850 57.705,140.440 57.464,140.956 57.170 C 141.471 56.875,141.724 56.634,141.518 56.634 C 141.312 56.634,140.722 56.875,140.206 57.170 M259.794 58.107 C 260.515 58.502,261.275 58.825,261.481 58.825 C 261.687 58.825,261.265 58.502,260.544 58.107 C 259.822 57.712,259.063 57.389,258.857 57.389 C 258.650 57.389,259.072 57.712,259.794 58.107 M136.832 58.669 C 135.904 59.166,135.314 59.572,135.520 59.572 C 135.726 59.572,136.654 59.166,137.582 58.669 C 138.510 58.172,139.100 57.766,138.894 57.766 C 138.688 57.766,137.760 58.172,136.832 58.669 M262.824 59.376 C 263.206 59.728,269.916 62.968,269.916 62.800 C 269.916 62.592,263.333 59.231,262.925 59.231 C 262.784 59.231,262.738 59.296,262.824 59.376 M132.615 60.571 C 131.161 61.359,131.326 61.631,132.802 60.880 C 134.215 60.162,134.465 59.975,133.989 59.996 C 133.800 60.005,133.182 60.263,132.615 60.571 M127.741 63.192 C 126.762 63.702,125.961 64.203,125.961 64.306 C 125.961 64.409,126.804 64.065,127.835 63.543 C 128.866 63.020,129.709 62.511,129.709 62.412 C 129.709 62.164,129.743 62.150,127.741 63.192 M270.291 63.106 C 270.291 63.183,271.851 64.132,273.758 65.214 C 293.828 76.602,313.105 94.985,325.369 114.433 C 326.824 116.740,327.801 117.900,326.948 116.307 C 320.465 104.209,303.577 85.781,288.847 74.732 C 282.719 70.135,270.291 62.348,270.291 63.106 M122.180 66.391 C 101.061 79.189,81.263 99.122,70.275 118.650 C 68.551 121.714,69.553 120.374,72.323 115.912 C 84.645 96.064,104.533 76.665,123.575 65.918 C 125.325 64.930,125.916 64.480,125.460 64.480 C 125.391 64.480,123.915 65.340,122.180 66.391 M186.410 89.491 C 186.978 89.577,187.905 89.577,188.472 89.491 C 189.039 89.405,188.575 89.334,187.441 89.334 C 186.307 89.334,185.843 89.405,186.410 89.491 M210.028 89.491 C 210.595 89.577,211.523 89.577,212.090 89.491 C 212.657 89.405,212.193 89.334,211.059 89.334 C 209.925 89.334,209.461 89.405,210.028 89.491 M180.412 89.855 C 180.773 89.950,181.364 89.950,181.724 89.855 C 182.085 89.761,181.790 89.684,181.068 89.684 C 180.347 89.684,180.052 89.761,180.412 89.855 M216.776 89.855 C 217.137 89.950,217.727 89.950,218.088 89.855 C 218.449 89.761,218.154 89.684,217.432 89.684 C 216.710 89.684,216.415 89.761,216.776 89.855 M221.649 90.230 C 222.010 90.325,222.601 90.325,222.962 90.230 C 223.322 90.136,223.027 90.059,222.306 90.059 C 221.584 90.059,221.289 90.136,221.649 90.230 M123.899 101.044 C 122.961 101.496,122.930 101.548,123.711 101.357 C 124.774 101.097,125.968 100.489,125.398 100.497 C 125.192 100.500,124.517 100.746,123.899 101.044 M118.650 102.919 C 117.713 103.370,117.682 103.422,118.463 103.231 C 119.525 102.972,120.719 102.363,120.150 102.371 C 119.944 102.374,119.269 102.621,118.650 102.919 M110.216 106.279 C 109.700 106.574,109.447 106.815,109.653 106.815 C 109.859 106.815,110.450 106.574,110.965 106.279 C 111.481 105.985,111.734 105.744,111.528 105.744 C 111.321 105.744,110.731 105.985,110.216 106.279 M287.535 106.279 C 288.051 106.574,288.641 106.815,288.847 106.815 C 289.053 106.815,288.800 106.574,288.285 106.279 C 287.769 105.985,287.179 105.744,286.973 105.744 C 286.767 105.744,287.020 105.985,287.535 106.279 M107.216 107.591 C 106.495 107.986,106.073 108.310,106.279 108.310 C 106.485 108.310,107.245 107.986,107.966 107.591 C 108.688 107.196,109.110 106.873,108.903 106.873 C 108.697 106.873,107.938 107.196,107.216 107.591 M290.534 107.591 C 291.256 107.986,292.015 108.310,292.221 108.310 C 292.427 108.310,292.006 107.986,291.284 107.591 C 290.562 107.196,289.803 106.873,289.597 106.873 C 289.391 106.873,289.813 107.196,290.534 107.591 M100.375 110.801 C 98.158 111.926,96.345 112.931,96.345 113.034 C 96.345 113.201,104.555 109.213,104.936 108.861 C 105.508 108.331,103.852 109.036,100.375 110.801 M293.565 108.861 C 293.946 109.214,302.156 113.201,302.156 113.033 C 302.156 112.826,294.073 108.716,293.664 108.716 C 293.524 108.716,293.479 108.781,293.565 108.861 M94.377 113.990 C 93.604 114.398,92.971 114.816,92.971 114.918 C 92.971 115.021,93.646 114.760,94.470 114.339 C 95.295 113.919,95.970 113.493,95.970 113.394 C 95.970 113.149,95.967 113.150,94.377 113.990 M302.530 113.387 C 302.530 113.490,303.205 113.919,304.030 114.339 C 304.855 114.760,305.530 115.020,305.530 114.917 C 305.530 114.814,304.855 114.385,304.030 113.964 C 303.205 113.544,302.530 113.284,302.530 113.387 M89.345 116.933 C 79.832 122.654,71.260 129.279,64.011 136.511 C 61.795 138.722,59.979 140.416,59.976 140.275 C 59.967 139.886,59.244 141.090,59.237 141.505 C 59.234 141.704,61.551 139.556,64.386 136.732 C 71.837 129.310,80.985 122.223,89.878 116.981 C 92.205 115.609,92.930 115.086,92.502 115.090 C 92.451 115.090,91.030 115.920,89.345 116.933 M306.354 115.523 C 306.704 115.800,308.728 117.089,310.852 118.388 C 319.680 123.786,327.850 130.243,335.054 137.516 C 337.581 140.067,339.545 141.885,339.419 141.555 C 339.292 141.226,339.028 140.956,338.832 140.956 C 338.636 140.956,338.578 140.789,338.705 140.584 C 338.831 140.379,338.762 139.916,338.551 139.553 C 338.256 139.047,338.164 139.023,338.156 139.449 C 338.149 139.754,336.584 138.476,334.677 136.609 C 327.949 130.022,322.124 125.336,314.339 120.248 C 309.779 117.268,304.928 114.397,306.354 115.523 M328.198 119.025 C 328.775 120.056,329.421 121.068,329.634 121.275 C 329.846 121.481,329.548 120.806,328.972 119.775 C 328.395 118.744,327.749 117.732,327.536 117.526 C 327.323 117.320,327.621 117.994,328.198 119.025 M68.229 122.212 C 67.808 123.037,67.548 123.711,67.651 123.711 C 67.754 123.711,68.183 123.037,68.604 122.212 C 69.024 121.387,69.284 120.712,69.181 120.712 C 69.078 120.712,68.649 121.387,68.229 122.212 M331.022 124.086 C 331.646 125.323,332.241 126.336,332.344 126.336 C 332.448 126.336,332.021 125.323,331.396 124.086 C 330.772 122.849,330.177 121.837,330.074 121.837 C 329.970 121.837,330.397 122.849,331.022 124.086 M65.022 128.249 C 63.874 130.539,62.994 132.472,63.067 132.545 C 63.139 132.617,64.161 130.744,65.337 128.382 C 66.513 126.019,67.393 124.086,67.293 124.086 C 67.192 124.086,66.171 125.960,65.022 128.249 M333.681 129.147 C 333.681 129.353,334.171 130.450,334.770 131.584 C 335.369 132.718,335.860 133.477,335.860 133.271 C 335.860 133.065,335.369 131.968,334.770 130.834 C 334.171 129.700,333.681 128.941,333.681 129.147 M62.291 134.037 C 61.663 135.415,61.783 135.709,62.462 134.456 C 62.780 133.871,62.969 133.322,62.883 133.236 C 62.797 133.150,62.531 133.511,62.291 134.037 M336.296 134.770 C 336.296 134.977,336.538 135.567,336.832 136.082 C 337.127 136.598,337.368 136.851,337.368 136.645 C 337.368 136.439,337.127 135.848,336.832 135.333 C 336.538 134.817,336.296 134.564,336.296 134.770 M334.208 249.447 C 326.189 257.548,316.124 265.141,305.574 271.049 C 303.281 272.333,301.406 273.462,301.406 273.558 C 301.406 273.835,306.853 270.785,311.153 268.100 C 319.770 262.719,326.819 257.222,333.667 250.546 C 336.271 248.007,338.492 246.021,338.604 246.133 C 338.716 246.245,338.987 245.822,339.206 245.193 C 339.425 244.563,339.571 244.070,339.531 244.097 C 339.490 244.123,337.095 246.531,334.208 249.447 M59.343 244.923 C 59.488 245.301,59.606 245.690,59.606 245.788 C 59.606 245.887,59.793 245.852,60.021 245.711 C 60.301 245.538,60.363 245.746,60.212 246.345 C 60.089 246.835,60.088 247.015,60.210 246.746 C 60.357 246.423,61.726 247.509,64.237 249.942 C 74.901 260.273,86.360 268.293,100.744 275.492 C 103.267 276.755,105.460 277.784,105.617 277.779 C 105.775 277.774,103.037 276.286,99.531 274.473 C 84.480 266.686,73.875 259.117,63.748 248.931 C 61.181 246.349,59.199 244.545,59.343 244.923 M60.383 247.610 C 60.383 247.816,60.624 248.407,60.918 248.922 C 61.213 249.438,61.454 249.691,61.454 249.485 C 61.454 249.278,61.213 248.688,60.918 248.172 C 60.624 247.657,60.383 247.404,60.383 247.610 M337.081 249.501 C 336.452 250.879,336.572 251.173,337.251 249.920 C 337.569 249.335,337.758 248.786,337.672 248.700 C 337.587 248.614,337.320 248.975,337.081 249.501 M61.507 250.234 C 61.507 250.440,61.748 251.031,62.043 251.546 C 62.338 252.062,62.579 252.315,62.579 252.109 C 62.579 251.903,62.338 251.312,62.043 250.797 C 61.748 250.281,61.507 250.028,61.507 250.234 M335.581 252.875 C 334.953 254.253,335.073 254.547,335.752 253.294 C 336.069 252.709,336.258 252.160,336.173 252.074 C 336.087 251.988,335.821 252.348,335.581 252.875 M62.605 252.819 C 62.605 253.242,68.489 264.760,69.137 265.604 C 69.453 266.017,68.172 263.318,66.289 259.606 C 62.752 252.632,62.605 252.362,62.605 252.819 M332.786 258.867 C 332.232 259.995,331.859 260.918,331.957 260.918 C 332.209 260.918,334.100 257.124,333.931 256.955 C 333.855 256.879,333.339 257.739,332.786 258.867 M330.459 263.168 C 329.937 264.199,329.594 265.042,329.697 265.042 C 329.800 265.042,330.312 264.199,330.834 263.168 C 331.357 262.137,331.700 261.293,331.597 261.293 C 331.493 261.293,330.982 262.137,330.459 263.168 M327.631 268.135 C 316.156 287.601,297.166 306.910,278.273 318.322 C 276.563 319.355,275.164 320.287,275.164 320.393 C 275.164 320.855,284.198 314.990,288.779 311.553 C 300.594 302.690,311.847 291.344,320.223 279.850 C 324.059 274.587,329.897 265.417,329.413 265.417 C 329.314 265.417,328.512 266.640,327.631 268.135 M70.707 268.229 C 80.560 286.355,107.688 313.290,123.336 320.484 C 124.545 321.040,124.322 320.885,117.891 316.712 C 100.276 305.281,85.462 290.473,73.939 272.780 C 69.757 266.359,69.472 265.958,70.707 268.229 M297.657 275.351 C 296.317 276.053,295.352 276.635,295.512 276.645 C 295.911 276.670,300.281 274.449,300.281 274.221 C 300.281 273.969,300.369 273.932,297.657 275.351 M291.659 278.163 C 290.937 278.558,290.515 278.881,290.722 278.881 C 290.928 278.881,291.687 278.558,292.409 278.163 C 293.130 277.768,293.552 277.445,293.346 277.445 C 293.140 277.445,292.381 277.768,291.659 278.163 M108.341 279.100 C 108.857 279.395,109.447 279.636,109.653 279.636 C 109.859 279.636,109.606 279.395,109.091 279.100 C 108.575 278.806,107.985 278.565,107.779 278.565 C 107.573 278.565,107.826 278.806,108.341 279.100 M287.910 279.850 C 287.395 280.145,287.142 280.386,287.348 280.386 C 287.554 280.386,288.144 280.145,288.660 279.850 C 289.175 279.555,289.428 279.314,289.222 279.314 C 289.016 279.314,288.425 279.555,287.910 279.850 M112.045 280.608 C 113.154 281.134,114.131 281.495,114.216 281.410 C 114.301 281.326,113.646 280.963,112.762 280.606 C 110.197 279.569,109.857 279.570,112.045 280.608 M121.087 284.098 C 121.396 284.289,122.071 284.558,122.587 284.696 C 123.238 284.870,123.352 284.841,122.962 284.599 C 122.652 284.408,121.978 284.139,121.462 284.001 C 120.811 283.827,120.696 283.856,121.087 284.098 M272.915 285.473 C 271.575 285.957,270.656 286.365,270.874 286.381 C 271.375 286.418,275.914 284.895,275.914 284.689 C 275.914 284.436,275.464 284.554,272.915 285.473 M128.772 286.785 C 129.185 286.963,129.775 287.108,130.084 287.108 C 130.439 287.108,130.369 286.988,129.897 286.785 C 129.485 286.608,128.894 286.463,128.585 286.463 C 128.230 286.463,128.300 286.582,128.772 286.785 M132.521 287.910 C 132.933 288.087,133.524 288.232,133.833 288.232 C 134.188 288.232,134.118 288.113,133.646 287.910 C 133.233 287.733,132.643 287.588,132.334 287.588 C 131.979 287.588,132.048 287.707,132.521 287.910 M179.288 296.416 C 179.649 296.510,180.239 296.510,180.600 296.416 C 180.961 296.322,180.665 296.244,179.944 296.244 C 179.222 296.244,178.927 296.322,179.288 296.416 M218.276 296.416 C 218.636 296.510,219.227 296.510,219.588 296.416 C 219.948 296.322,219.653 296.244,218.932 296.244 C 218.210 296.244,217.915 296.322,218.276 296.416 M184.724 296.797 C 185.187 296.886,185.947 296.886,186.410 296.797 C 186.874 296.708,186.495 296.634,185.567 296.634 C 184.639 296.634,184.260 296.708,184.724 296.797 M212.283 296.801 C 212.852 296.888,213.696 296.885,214.157 296.796 C 214.618 296.707,214.152 296.637,213.121 296.640 C 212.090 296.642,211.713 296.715,212.283 296.801 M195.802 297.187 C 197.823 297.254,201.028 297.254,202.925 297.186 C 204.821 297.118,203.168 297.063,199.250 297.063 C 195.333 297.064,193.781 297.119,195.802 297.187 M270.946 322.542 C 268.936 323.632,267.164 324.665,267.010 324.837 C 266.656 325.231,274.099 321.327,274.583 320.865 C 275.200 320.276,274.699 320.507,270.946 322.542 M124.954 321.427 C 125.870 322.138,136.105 327.376,136.262 327.214 C 136.330 327.143,133.661 325.693,130.330 323.992 C 126.999 322.290,124.580 321.136,124.954 321.427 M261.668 327.273 C 260.534 327.872,259.775 328.362,259.981 328.362 C 260.187 328.362,261.284 327.872,262.418 327.273 C 263.552 326.674,264.311 326.183,264.105 326.183 C 263.899 326.183,262.802 326.674,261.668 327.273 M139.082 328.585 C 139.597 328.879,140.187 329.121,140.394 329.121 C 140.600 329.121,140.347 328.879,139.831 328.585 C 139.316 328.290,138.725 328.049,138.519 328.049 C 138.313 328.049,138.566 328.290,139.082 328.585 M257.919 328.960 C 257.404 329.254,257.151 329.495,257.357 329.495 C 257.563 329.495,258.154 329.254,258.669 328.960 C 259.185 328.665,259.438 328.424,259.231 328.424 C 259.025 328.424,258.435 328.665,257.919 328.960 M251.359 331.597 C 250.422 332.049,250.390 332.101,251.172 331.910 C 252.234 331.650,253.428 331.041,252.858 331.050 C 252.652 331.053,251.978 331.299,251.359 331.597 M158.388 335.520 C 158.800 335.697,159.391 335.842,159.700 335.842 C 160.055 335.842,159.985 335.723,159.513 335.520 C 159.100 335.343,158.510 335.198,158.201 335.198 C 157.846 335.198,157.915 335.317,158.388 335.520 M211.153 340.652 C 211.514 340.746,212.104 340.746,212.465 340.652 C 212.826 340.558,212.530 340.481,211.809 340.481 C 211.087 340.481,210.792 340.558,211.153 340.652 M192.034 341.037 C 192.601 341.123,193.529 341.123,194.096 341.037 C 194.663 340.951,194.199 340.881,193.065 340.881 C 191.931 340.881,191.467 340.951,192.034 341.037 M204.405 341.037 C 204.972 341.123,205.900 341.123,206.467 341.037 C 207.034 340.951,206.570 340.881,205.436 340.881 C 204.302 340.881,203.838 340.951,204.405 341.037 " stroke="none" fill="#e66d24" fill-rule="evenodd"></path></g></svg>