<svg id="svg" version="1.1" xmlns="http://www.w3.org/2000/svg" xmlns:xlink="http://www.w3.org/1999/xlink" width="400" height="400" viewBox="0, 0, 400,400"><g id="svgg"><path id="path0" d="M191.378 45.207 C 136.060 49.421,91.269 78.327,66.248 125.961 C 64.091 130.067,59.231 140.895,59.231 141.595 C 59.231 141.735,61.214 139.855,63.636 137.416 C 127.269 73.368,270.877 73.185,334.632 137.072 L 339.554 142.005 338.261 138.762 C 319.295 91.205,275.507 55.907,224.742 47.254 C 215.185 45.625,198.961 44.630,191.378 45.207 M336.457 247.317 C 298.161 288.736,217.499 307.268,145.829 291.115 C 112.072 283.507,79.289 266.345,61.955 247.206 C 58.913 243.848,58.892 243.860,60.565 248.021 C 74.540 282.764,102.732 312.077,137.154 327.651 C 212.427 361.710,300.636 329.001,335.311 254.171 C 337.147 250.206,339.722 244.020,339.517 244.061 C 339.484 244.068,338.107 245.533,336.457 247.317 " stroke="none" fill="#fb7c15" fill-rule="evenodd"></path><path id="path1" d="M81.350 0.611 C 38.920 6.366,6.109 39.361,0.576 81.837 C -0.297 88.544,-0.297 311.456,0.576 318.163 C 6.136 360.850,39.150 393.864,81.837 399.424 C 88.544 400.297,311.456 400.297,318.163 399.424 C 360.846 393.864,393.864 360.846,399.424 318.163 C 400.297 311.456,400.297 88.544,399.424 81.837 C 393.863 39.147,360.853 6.137,318.163 0.576 C 311.747 -0.259,87.524 -0.226,81.350 0.611 M316.365 14.847 C 332.506 20.265,336.826 41.117,324.201 52.671 C 309.679 65.961,286.600 55.594,286.646 35.801 C 286.681 20.665,301.845 9.973,316.365 14.847 M218.182 46.096 C 263.608 52.195,302.425 77.091,326.628 115.651 C 331.186 122.913,339.659 140.157,339.646 142.145 C 339.645 142.284,337.746 140.450,335.426 138.069 C 271.987 72.957,123.744 73.454,62.241 138.985 C 60.379 140.968,58.857 142.466,58.857 142.313 C 58.857 141.001,64.763 128.192,68.229 121.989 C 98.039 68.633,158.424 38.072,218.182 46.096 M71.390 50.917 C 86.109 57.805,83.223 78.441,67.121 81.435 C 57.337 83.255,47.362 73.120,49.142 63.168 C 50.998 52.792,62.206 46.620,71.390 50.917 M258.294 162.512 L 258.294 169.447 264.667 169.447 L 271.040 169.447 271.040 172.634 L 271.040 175.820 264.652 175.820 L 258.263 175.820 258.373 191.471 C 258.513 211.673,258.494 211.621,266.025 211.621 C 270.558 211.621,270.409 211.480,270.217 215.569 L 270.103 217.994 268.416 218.433 C 261.160 220.319,254.125 218.041,251.569 212.979 C 249.616 209.109,249.570 208.639,249.526 191.753 L 249.485 176.007 245.642 175.901 L 241.799 175.794 241.799 172.634 L 241.799 169.473 245.642 169.366 L 249.485 169.260 249.672 163.269 L 249.859 157.278 253.233 156.454 C 255.089 156.001,256.987 155.618,257.451 155.603 L 258.294 155.576 258.294 162.512 M359.513 172.071 L 359.513 176.195 357.904 176.195 C 354.065 176.195,349.179 178.393,347.266 180.980 C 344.410 184.843,344.149 186.756,344.145 203.843 L 344.142 217.807 339.810 217.807 L 335.477 217.807 335.587 193.627 L 335.698 169.447 339.358 169.447 L 343.018 169.447 343.018 173.924 C 343.018 179.131,343.348 179.661,344.707 176.631 C 346.965 171.600,352.299 168.254,358.482 167.991 L 359.513 167.948 359.513 172.071 M166.188 168.882 C 187.179 174.349,187.307 211.383,166.358 218.000 C 158.832 220.378,151.254 218.778,146.568 213.824 C 145.520 212.716,144.588 211.809,144.496 211.809 C 144.405 211.809,144.330 217.713,144.330 224.930 L 144.330 238.051 140.019 238.051 L 135.708 238.051 135.704 205.717 C 135.703 187.933,135.595 172.498,135.465 171.415 L 135.228 169.447 139.217 169.447 L 143.205 169.447 143.208 171.040 C 143.209 171.917,143.317 173.765,143.448 175.148 L 143.685 177.662 144.692 176.272 C 149.344 169.851,158.208 166.803,166.188 168.882 M308.584 169.435 C 316.689 171.958,321.275 179.354,321.901 190.909 L 322.139 195.314 304.783 195.314 L 287.426 195.314 287.649 197.973 C 288.608 209.403,300.491 215.139,314.525 210.945 C 318.276 209.824,317.828 209.581,318.667 213.191 C 319.445 216.541,319.573 216.336,316.026 217.454 C 292.021 225.021,274.057 209.736,279.871 186.692 C 283.311 173.059,295.906 165.489,308.584 169.435 M60.641 195.033 C 60.509 223.853,60.619 222.527,57.912 228.156 C 55.251 233.690,50.544 237.069,43.782 238.298 C 39.616 239.056,39.525 239.012,39.204 236.114 C 39.060 234.808,38.850 233.360,38.737 232.896 C 38.554 232.145,38.673 232.052,39.816 232.052 C 43.315 232.052,47.751 229.664,49.363 226.912 C 51.475 223.309,51.482 223.209,51.635 195.033 L 51.776 169.072 56.268 169.072 L 60.760 169.072 60.641 195.033 M118.778 193.639 L 118.650 218.206 114.902 218.100 L 111.153 217.994 110.889 214.294 C 110.571 209.827,110.632 209.906,109.122 212.009 C 102.930 220.631,87.965 221.604,81.812 213.785 C 77.846 208.744,77.494 206.606,77.316 186.410 L 77.166 169.447 81.695 169.447 L 86.223 169.447 86.223 184.837 C 86.223 202.059,86.427 203.984,88.597 207.209 C 93.408 214.359,104.231 212.797,108.760 204.300 L 109.653 202.624 109.762 185.848 L 109.870 169.072 114.388 169.072 L 118.906 169.072 118.778 193.639 M202.875 182.193 C 205.543 189.306,208.707 198.074,209.906 201.677 L 212.087 208.228 213.088 204.864 C 214.204 201.114,224.818 169.809,225.054 169.573 C 225.136 169.491,227.216 169.471,229.677 169.529 L 234.150 169.634 226.621 189.128 C 211.142 229.207,207.477 235.192,195.823 239.422 C 192.876 240.492,193.266 240.759,192.130 236.890 C 190.942 232.839,190.920 232.992,192.784 232.247 C 198.934 229.787,206.935 220.802,206.935 216.354 C 206.935 215.718,202.822 205.031,197.751 192.491 C 192.699 179.999,188.566 169.615,188.566 169.414 C 188.566 169.192,190.409 169.091,193.295 169.155 L 198.025 169.260 202.875 182.193 M299.684 174.333 C 295.870 175.087,292.411 177.410,290.221 180.691 C 288.928 182.627,288.489 183.847,287.694 187.723 L 287.521 188.566 300.642 188.566 L 313.763 188.566 313.990 187.660 C 315.662 180.997,306.964 172.895,299.684 174.333 M156.514 175.587 C 152.025 176.689,147.902 179.909,146.109 183.713 C 143.689 188.845,143.627 199.737,145.990 204.518 C 151.013 214.681,165.645 214.778,170.761 204.683 C 175.763 194.812,172.958 181.140,165.051 176.853 C 163.445 175.982,162.466 175.710,159.325 175.261 C 158.810 175.187,157.545 175.333,156.514 175.587 M74.039 258.063 C 144.625 314.283,278.436 308.439,336.994 246.578 C 340.055 243.344,340.088 243.446,337.778 248.937 C 291.956 357.875,144.898 373.901,76.474 277.413 C 70.101 268.426,58.857 247.049,58.857 243.919 C 58.857 243.845,61.345 246.258,64.386 249.282 C 67.427 252.305,71.771 256.257,74.039 258.063 M93.540 332.979 C 93.956 333.056,94.504 333.247,94.758 333.404 C 95.012 333.561,95.389 333.586,95.595 333.458 C 95.801 333.331,95.970 333.423,95.970 333.664 C 95.970 333.904,96.223 334.004,96.532 333.885 C 96.842 333.766,97.095 333.851,97.095 334.072 C 97.095 334.294,97.348 334.379,97.657 334.260 C 97.966 334.141,98.219 334.218,98.219 334.429 C 98.219 334.641,98.374 334.719,98.562 334.603 C 98.751 334.486,98.962 334.545,99.031 334.734 C 99.100 334.922,99.487 335.134,99.890 335.205 C 100.294 335.275,100.933 335.634,101.310 336.002 C 101.687 336.371,102.158 336.572,102.357 336.449 C 102.555 336.326,102.718 336.385,102.718 336.580 C 102.718 336.774,103.160 337.223,103.701 337.578 C 104.346 338.001,104.578 338.048,104.373 337.715 C 104.202 337.435,104.730 337.888,105.546 338.721 C 106.362 339.554,107.627 340.735,108.358 341.345 C 109.089 341.956,109.426 342.307,109.108 342.125 C 108.789 341.944,109.063 342.309,109.717 342.937 C 110.370 343.564,110.810 344.173,110.694 344.289 C 110.578 344.405,110.759 344.606,111.097 344.735 C 111.435 344.865,111.617 345.123,111.502 345.309 C 111.387 345.495,111.555 345.748,111.877 345.871 C 112.198 345.995,112.367 346.246,112.253 346.431 C 112.139 346.616,112.224 346.767,112.443 346.767 C 112.661 346.767,112.806 346.893,112.765 347.048 C 112.626 347.575,113.264 349.016,113.637 349.016 C 113.841 349.016,113.904 349.185,113.777 349.391 C 113.650 349.597,113.734 349.766,113.964 349.766 C 114.195 349.766,114.281 349.931,114.157 350.133 C 114.032 350.335,114.142 350.883,114.402 351.351 C 114.662 351.819,114.902 352.329,114.935 352.484 C 114.968 352.638,115.036 352.891,115.085 353.046 C 115.135 353.201,115.215 353.496,115.263 353.702 C 115.311 353.908,115.389 354.161,115.437 354.264 C 116.238 355.979,116.016 365.585,115.122 367.885 C 114.895 368.470,114.804 369.102,114.921 369.291 C 115.038 369.480,114.937 369.634,114.696 369.634 C 114.456 369.634,114.352 369.877,114.466 370.173 C 114.579 370.469,114.505 370.766,114.302 370.834 C 114.098 370.902,113.903 371.335,113.868 371.796 C 113.833 372.256,113.662 372.634,113.488 372.634 C 113.313 372.634,113.275 372.802,113.402 373.008 C 113.529 373.215,113.445 373.383,113.215 373.383 C 112.984 373.383,112.900 373.552,113.027 373.758 C 113.155 373.964,113.052 374.133,112.799 374.133 C 112.547 374.133,112.438 374.231,112.559 374.352 C 112.679 374.472,112.448 374.900,112.045 375.303 C 111.642 375.705,111.429 376.223,111.572 376.454 C 111.714 376.684,111.670 376.774,111.473 376.652 C 111.276 376.530,110.900 376.775,110.638 377.196 C 110.245 377.824,110.249 377.906,110.656 377.654 C 110.929 377.486,110.131 378.354,108.882 379.583 C 107.633 380.812,107.295 381.228,108.132 380.506 L 109.653 379.194 108.187 380.772 C 107.380 381.639,106.605 382.278,106.464 382.191 C 106.323 382.104,105.592 382.598,104.838 383.288 C 104.084 383.979,103.462 384.436,103.456 384.305 C 103.449 384.175,103.189 384.405,102.877 384.817 C 102.566 385.230,102.270 385.483,102.221 385.380 C 102.076 385.077,98.969 386.585,98.969 386.958 C 98.969 387.145,98.800 387.194,98.594 387.067 C 98.388 386.939,98.219 387.008,98.219 387.220 C 98.219 387.432,97.966 387.508,97.657 387.390 C 97.348 387.271,97.095 387.355,97.095 387.577 C 97.095 387.799,96.842 387.883,96.532 387.764 C 96.223 387.646,95.970 387.745,95.970 387.986 C 95.970 388.226,95.801 388.319,95.595 388.191 C 95.389 388.064,95.012 388.088,94.758 388.245 C 94.504 388.402,94.040 388.569,93.727 388.615 C 93.414 388.662,92.399 388.827,91.471 388.981 C 90.544 389.136,88.857 389.263,87.723 389.263 C 86.589 389.263,84.902 389.136,83.974 388.981 C 83.046 388.827,82.031 388.662,81.718 388.615 C 81.405 388.569,80.941 388.402,80.687 388.245 C 80.433 388.088,80.056 388.064,79.850 388.191 C 79.644 388.319,79.475 388.226,79.475 387.986 C 79.475 387.745,79.233 387.642,78.937 387.755 C 78.641 387.869,78.343 387.795,78.275 387.591 C 78.208 387.387,77.775 387.192,77.314 387.158 C 76.853 387.123,76.476 386.952,76.476 386.777 C 76.476 386.603,76.307 386.564,76.101 386.692 C 75.895 386.819,75.726 386.735,75.726 386.504 C 75.726 386.274,75.572 386.180,75.383 386.297 C 75.195 386.414,74.984 386.352,74.915 386.160 C 74.846 385.968,74.550 385.756,74.258 385.689 C 73.966 385.622,73.412 385.266,73.026 384.897 C 72.640 384.529,72.136 384.344,71.906 384.487 C 71.666 384.635,71.591 384.577,71.730 384.352 C 71.982 383.945,70.950 383.317,70.291 383.477 C 70.084 383.527,70.041 383.442,70.194 383.289 C 70.348 383.136,70.095 382.745,69.632 382.421 C 69.169 382.097,68.762 381.913,68.727 382.012 C 68.693 382.112,68.234 381.789,67.708 381.295 C 67.182 380.801,66.833 380.266,66.932 380.107 C 67.030 379.947,66.561 379.364,65.889 378.811 C 65.217 378.258,64.920 377.920,65.230 378.060 C 65.539 378.200,65.394 377.964,64.907 377.536 C 64.420 377.108,64.167 376.752,64.345 376.745 C 64.522 376.739,64.398 376.528,64.068 376.277 C 63.738 376.026,63.441 375.651,63.407 375.445 C 63.234 374.381,62.888 373.771,62.569 373.968 C 62.373 374.089,62.236 374.050,62.266 373.880 C 62.401 373.098,62.188 372.270,61.735 371.817 C 61.463 371.544,61.228 371.190,61.214 371.030 C 61.199 370.869,61.066 370.363,60.916 369.905 C 60.517 368.680,60.458 368.519,60.372 368.416 C 60.329 368.365,60.236 367.985,60.165 367.573 C 60.094 367.160,59.926 366.232,59.793 365.511 C 59.347 363.108,59.571 356.317,60.140 354.973 C 60.281 354.641,60.460 353.882,60.538 353.286 C 60.616 352.690,60.711 352.118,60.750 352.015 C 60.788 351.912,60.800 351.701,60.775 351.546 C 60.751 351.392,60.918 351.265,61.146 351.265 C 61.374 351.265,61.464 351.012,61.345 350.703 C 61.227 350.394,61.303 350.141,61.515 350.141 C 61.727 350.141,61.796 349.972,61.668 349.766 C 61.541 349.560,61.595 349.391,61.788 349.391 C 62.162 349.391,63.220 347.147,63.069 346.673 C 63.020 346.518,63.130 346.392,63.312 346.392 C 63.495 346.392,63.934 345.949,64.288 345.408 C 64.724 344.742,64.769 344.514,64.425 344.700 C 64.146 344.851,64.424 344.522,65.042 343.969 C 65.661 343.416,65.914 343.081,65.604 343.225 C 65.295 343.369,65.668 342.953,66.433 342.300 C 67.198 341.647,68.358 340.488,69.010 339.723 C 69.663 338.958,70.078 338.585,69.932 338.894 C 69.787 339.203,70.086 339.003,70.597 338.449 C 71.108 337.896,71.623 337.540,71.743 337.660 C 71.862 337.779,72.066 337.601,72.195 337.263 C 72.325 336.925,72.576 336.739,72.753 336.848 C 72.930 336.957,73.404 336.718,73.807 336.315 C 74.210 335.912,74.638 335.681,74.758 335.801 C 74.878 335.922,74.977 335.813,74.977 335.561 C 74.977 335.308,75.145 335.205,75.351 335.333 C 75.558 335.460,75.726 335.422,75.726 335.247 C 75.726 335.073,76.103 334.902,76.564 334.867 C 77.025 334.832,77.458 334.637,77.526 334.433 C 77.594 334.229,77.891 334.156,78.187 334.269 C 78.483 334.383,78.725 334.294,78.725 334.072 C 78.725 333.851,78.978 333.766,79.288 333.885 C 79.597 334.004,79.850 333.919,79.850 333.698 C 79.850 333.476,80.086 333.385,80.374 333.496 C 80.663 333.606,81.012 333.514,81.150 333.290 C 81.288 333.067,81.543 332.971,81.716 333.078 C 81.889 333.185,82.425 333.125,82.908 332.944 C 83.724 332.639,91.841 332.666,93.540 332.979 " stroke="none" fill="#e3e3e3" fill-rule="evenodd"></path><path id="path2" d="M61.386 49.868 C 46.810 53.550,44.727 73.416,58.224 80.020 C 72.218 86.866,86.978 70.307,78.628 57.130 C 75.113 51.585,67.418 48.344,61.386 49.868 M253.889 156.670 L 250.047 157.602 250.047 163.525 L 250.047 169.447 246.111 169.447 L 242.174 169.447 242.174 172.446 L 242.174 175.445 245.923 175.445 L 249.672 175.445 249.672 190.924 C 249.672 203.435,249.779 206.815,250.231 208.550 C 252.303 216.502,257.973 219.939,266.502 218.412 C 270.334 217.726,270.216 217.857,270.005 214.548 L 269.833 211.851 266.754 212.068 C 258.441 212.655,257.919 211.366,257.919 190.235 L 257.919 175.445 264.292 175.445 L 270.665 175.445 270.665 172.446 L 270.665 169.447 264.301 169.447 L 257.936 169.447 257.834 162.592 L 257.732 155.737 253.889 156.670 M157.802 168.711 C 153.262 169.400,148.377 172.209,145.709 175.663 C 143.628 178.357,143.205 178.297,143.205 175.310 C 143.205 173.999,143.098 172.143,142.967 171.186 L 142.728 169.447 139.160 169.447 L 135.592 169.447 135.837 174.004 C 135.972 176.511,136.082 191.947,136.082 208.306 L 136.082 238.051 140.019 238.051 L 143.955 238.051 143.955 224.742 C 143.955 209.741,143.772 210.421,146.946 213.645 C 156.128 222.970,172.707 219.221,178.778 206.446 C 187.746 187.576,175.746 165.987,157.802 168.711 M354.639 168.859 C 350.343 170.054,346.422 173.362,344.873 177.097 C 343.440 180.555,343.018 179.922,343.018 174.321 L 343.018 169.447 339.363 169.448 L 335.708 169.448 335.708 193.534 L 335.708 217.619 339.738 217.726 L 343.768 217.832 343.768 204.114 C 343.768 195.989,343.936 189.298,344.181 187.701 C 345.253 180.720,349.861 176.442,356.653 176.124 L 359.134 176.007 359.136 172.165 L 359.138 168.322 357.732 168.356 C 356.959 168.374,355.567 168.601,354.639 168.859 M298.594 168.940 C 285.762 171.613,278.731 181.908,279.384 197.068 C 280.120 214.156,295.087 222.756,314.821 217.431 C 319.136 216.267,319.099 216.313,318.343 213.022 C 317.852 210.889,317.595 210.348,317.153 210.524 C 302.455 216.368,288.460 210.452,287.293 197.903 L 287.053 195.314 304.402 195.314 L 321.751 195.314 321.539 190.722 C 320.853 175.858,310.873 166.383,298.594 168.940 M52.106 191.659 C 52.101 221.391,51.772 224.952,48.703 228.439 C 47.044 230.323,43.692 231.975,40.841 232.312 C 38.941 232.537,38.927 232.549,39.125 233.702 C 39.235 234.341,39.437 235.665,39.574 236.645 C 39.866 238.732,40.342 238.845,44.611 237.842 C 50.638 236.426,54.684 233.414,57.282 228.411 C 60.407 222.392,60.356 222.954,60.356 194.317 L 60.356 169.072 56.232 169.072 L 52.109 169.072 52.106 191.659 M77.692 186.598 C 77.858 207.155,78.198 209.051,82.581 213.900 C 89.453 221.501,104.043 219.904,109.386 210.965 C 110.271 209.484,110.965 209.649,110.968 211.340 C 110.969 212.113,111.078 213.885,111.210 215.276 L 111.449 217.807 114.942 217.807 L 118.436 217.807 118.452 193.627 L 118.468 169.447 114.360 169.447 L 110.252 169.447 110.140 186.036 L 110.028 202.624 108.978 204.762 C 105.063 212.735,92.731 214.526,88.430 207.746 C 86.122 204.107,86.089 203.814,85.937 185.848 L 85.799 169.447 81.676 169.447 L 77.553 169.447 77.692 186.598 M189.108 170.091 C 189.249 170.458,193.402 180.753,198.337 192.967 C 203.699 206.238,207.309 215.667,207.308 216.397 C 207.302 220.712,200.382 228.954,194.283 231.911 C 192.788 232.636,191.565 233.369,191.565 233.539 C 191.565 233.793,192.694 237.736,193.254 239.438 C 193.498 240.181,197.698 238.544,200.704 236.534 C 209.334 230.761,212.690 224.440,227.311 186.410 L 233.833 169.447 229.602 169.447 L 225.372 169.447 224.250 172.727 C 217.714 191.851,213.707 203.780,213.170 205.717 C 212.260 208.995,211.772 208.703,210.347 204.030 C 209.671 201.813,206.561 193.168,203.435 184.817 L 197.751 169.634 193.301 169.528 C 189.163 169.430,188.869 169.469,189.108 170.091 M306.457 174.724 C 310.956 176.407,313.864 180.644,314.093 185.848 L 314.229 188.941 300.831 188.941 L 287.432 188.941 287.621 186.593 C 288.330 177.760,298.107 171.600,306.457 174.724 M164.088 175.881 C 177.679 180.966,176.512 208.052,162.531 212.022 C 151.444 215.170,143.981 208.002,143.965 194.189 C 143.949 179.995,153.022 171.741,164.088 175.881 " stroke="none" fill="#4f4f4f" fill-rule="evenodd"></path><path id="path3" d="M303.955 14.451 C 289.963 17.844,282.724 33.564,289.308 46.259 C 296.374 59.887,313.926 62.512,324.869 51.577 C 340.499 35.959,325.447 9.240,303.955 14.451 M304.130 174.354 C 308.759 175.444,312.550 179.224,313.777 183.972 L 314.140 185.380 313.977 183.943 C 313.449 179.288,307.697 173.795,303.547 173.983 C 303.042 174.006,303.269 174.151,304.130 174.354 M295.474 175.368 C 291.543 177.399,288.202 181.823,287.725 185.632 C 287.523 187.235,287.528 187.231,288.083 185.286 C 289.374 180.763,292.207 177.343,296.248 175.431 C 297.538 174.821,298.341 174.325,298.032 174.329 C 297.723 174.333,296.572 174.801,295.474 175.368 M154.452 175.695 C 149.453 177.439,145.108 182.441,144.520 187.129 C 144.318 188.738,144.321 188.734,144.877 186.786 C 146.490 181.136,150.492 177.145,156.045 175.650 C 157.158 175.350,157.606 175.117,157.076 175.113 C 156.560 175.109,155.380 175.371,154.452 175.695 M161.670 175.477 C 166.817 176.691,171.174 181.419,172.613 187.356 C 172.899 188.537,173.147 189.118,173.165 188.648 C 173.367 183.112,166.030 174.884,161.092 175.108 C 160.584 175.131,160.809 175.274,161.670 175.477 M294.214 188.847 C 297.990 188.908,304.063 188.908,307.709 188.847 C 311.356 188.785,308.266 188.735,300.843 188.735 C 293.421 188.735,290.437 188.786,294.214 188.847 M144.102 194.189 C 144.102 196.973,144.161 198.112,144.233 196.720 C 144.305 195.328,144.305 193.051,144.233 191.659 C 144.161 190.267,144.102 191.406,144.102 194.189 M173.336 193.627 C 173.337 195.895,173.399 196.775,173.473 195.581 C 173.548 194.388,173.547 192.533,173.472 191.458 C 173.396 190.383,173.335 191.359,173.336 193.627 M172.565 199.898 C 171.590 204.546,168.727 208.609,164.948 210.709 C 163.814 211.339,163.308 211.745,163.824 211.612 C 167.990 210.533,173.861 202.230,173.132 198.446 C 173.063 198.087,172.808 198.740,172.565 199.898 M144.520 201.624 C 145.094 206.196,151.028 212.326,154.710 212.151 C 155.180 212.129,155.100 212.031,154.452 211.833 C 149.808 210.415,146.237 206.759,144.899 202.053 C 144.344 200.099,144.326 200.079,144.520 201.624 M156.992 212.459 C 157.874 212.538,159.223 212.537,159.991 212.456 C 160.759 212.376,160.037 212.311,158.388 212.312 C 156.739 212.314,156.110 212.379,156.992 212.459 " stroke="none" fill="#74747c" fill-rule="evenodd"></path><path id="path4" d="M308.247 13.764 C 308.814 13.850,309.742 13.850,310.309 13.764 C 310.876 13.678,310.412 13.608,309.278 13.608 C 308.144 13.608,307.680 13.678,308.247 13.764 M299.906 15.558 C 299.391 15.852,299.138 16.093,299.344 16.093 C 299.550 16.093,300.141 15.852,300.656 15.558 C 301.172 15.263,301.425 15.022,301.218 15.022 C 301.012 15.022,300.422 15.263,299.906 15.558 M297.376 16.866 C 296.706 17.274,296.157 17.690,296.157 17.789 C 296.157 17.888,296.748 17.621,297.470 17.195 C 298.191 16.769,298.782 16.353,298.782 16.270 C 298.782 16.031,298.663 16.081,297.376 16.866 M320.150 16.589 C 320.253 16.704,321.392 17.574,322.681 18.521 C 323.970 19.468,325.799 21.297,326.746 22.586 C 328.835 25.429,329.106 25.699,328.175 24.008 C 327.252 22.335,322.932 18.015,321.259 17.093 C 320.546 16.700,320.047 16.473,320.150 16.589 M294.413 19.035 C 293.254 20.037,290.703 22.870,290.964 22.866 C 291.037 22.865,292.182 21.769,293.510 20.429 C 296.043 17.873,296.405 17.315,294.413 19.035 M288.346 27.195 C 287.718 28.574,287.838 28.868,288.517 27.614 C 288.834 27.029,289.023 26.480,288.937 26.395 C 288.852 26.309,288.585 26.669,288.346 27.195 M286.513 35.989 C 286.513 36.917,286.586 37.296,286.675 36.832 C 286.764 36.368,286.764 35.609,286.675 35.145 C 286.586 34.681,286.513 35.061,286.513 35.989 M288.461 45.173 C 289.656 48.983,297.838 57.038,300.447 56.972 C 300.665 56.967,299.831 56.423,298.594 55.765 C 295.728 54.239,291.077 49.608,289.463 46.673 C 288.783 45.436,288.332 44.761,288.461 45.173 M328.585 46.789 C 327.523 48.836,323.823 52.941,321.462 54.690 C 320.550 55.366,320.515 55.438,321.275 55.071 C 323.651 53.922,330.606 45.570,329.831 44.795 C 329.754 44.718,329.193 45.616,328.585 46.789 M191.101 45.251 C 191.567 45.341,192.242 45.337,192.600 45.244 C 192.959 45.150,192.577 45.076,191.753 45.080 C 190.928 45.085,190.635 45.161,191.101 45.251 M206.096 45.251 C 206.563 45.341,207.237 45.337,207.596 45.244 C 207.954 45.150,207.573 45.076,206.748 45.080 C 205.923 45.085,205.630 45.161,206.096 45.251 M301.781 85.661 C 302.480 86.382,303.137 86.973,303.240 86.973 C 303.343 86.973,302.855 86.382,302.156 85.661 C 301.456 84.939,300.800 84.349,300.696 84.349 C 300.593 84.349,301.081 84.939,301.781 85.661 M93.151 88.941 L 89.410 92.784 93.252 89.042 C 96.821 85.566,97.265 85.098,96.994 85.098 C 96.938 85.098,95.209 86.828,93.151 88.941 M189.972 89.493 C 190.642 89.576,191.739 89.576,192.409 89.493 C 193.079 89.410,192.530 89.342,191.190 89.342 C 189.850 89.342,189.302 89.410,189.972 89.493 M206.092 89.493 C 206.762 89.576,207.858 89.576,208.529 89.493 C 209.199 89.410,208.650 89.342,207.310 89.342 C 205.970 89.342,205.422 89.410,206.092 89.493 M182.479 89.862 C 182.945 89.952,183.620 89.948,183.978 89.855 C 184.337 89.761,183.955 89.687,183.130 89.692 C 182.306 89.696,182.012 89.772,182.479 89.862 M214.719 89.862 C 215.185 89.952,215.860 89.948,216.218 89.855 C 216.576 89.761,216.195 89.687,215.370 89.692 C 214.545 89.696,214.252 89.772,214.719 89.862 M308.529 92.409 C 309.228 93.130,309.885 93.721,309.988 93.721 C 310.091 93.721,309.603 93.130,308.903 92.409 C 308.204 91.687,307.547 91.097,307.444 91.097 C 307.341 91.097,307.829 91.687,308.529 92.409 M334.208 136.832 C 335.640 138.276,336.896 139.456,337.000 139.456 C 337.103 139.456,336.015 138.276,334.583 136.832 C 333.151 135.389,331.895 134.208,331.791 134.208 C 331.688 134.208,332.776 135.389,334.208 136.832 M59.647 141.353 C 59.154 141.763,58.830 142.179,58.927 142.276 C 59.024 142.373,59.499 142.031,59.983 141.517 C 61.035 140.397,60.883 140.323,59.647 141.353 M258.076 162.512 C 258.076 166.429,258.132 167.981,258.199 165.960 C 258.267 163.939,258.266 160.734,258.198 158.837 C 258.131 156.941,258.075 158.594,258.076 162.512 M252.296 156.662 L 249.859 157.300 249.672 163.374 C 249.569 166.715,249.611 169.448,249.766 169.448 C 249.920 169.447,250.047 166.780,250.047 163.521 L 250.047 157.594 253.140 156.813 C 254.841 156.383,255.895 156.030,255.483 156.028 C 255.070 156.026,253.636 156.311,252.296 156.662 M358.094 168.215 L 359.113 168.370 359.233 172.376 L 359.353 176.382 359.433 172.165 L 359.513 167.948 358.294 168.004 C 357.179 168.055,357.162 168.073,358.094 168.215 M157.736 168.588 C 158.203 168.677,158.877 168.674,159.236 168.580 C 159.594 168.486,159.213 168.413,158.388 168.417 C 157.563 168.421,157.270 168.498,157.736 168.588 M162.610 168.588 C 163.076 168.677,163.751 168.674,164.109 168.580 C 164.468 168.486,164.086 168.413,163.261 168.417 C 162.437 168.421,162.143 168.498,162.610 168.588 M301.130 168.591 C 301.700 168.678,302.543 168.675,303.004 168.586 C 303.465 168.497,302.999 168.427,301.968 168.430 C 300.937 168.432,300.560 168.505,301.130 168.591 M353.169 168.938 C 349.555 170.204,346.282 173.188,344.694 176.668 C 344.152 177.855,343.553 178.731,343.363 178.614 C 343.173 178.496,343.018 178.579,343.018 178.797 C 343.018 179.936,344.113 178.933,344.873 177.097 C 346.422 173.362,350.343 170.054,354.639 168.859 C 355.567 168.601,355.989 168.382,355.576 168.374 C 355.164 168.365,354.081 168.619,353.169 168.938 M153.318 169.567 C 149.784 171.021,143.955 175.913,143.955 177.425 C 143.955 177.894,143.933 177.916,145.973 175.345 C 147.770 173.078,151.257 170.701,154.425 169.583 C 155.780 169.104,156.551 168.714,156.139 168.714 C 155.726 168.715,154.457 169.099,153.318 169.567 M167.283 169.543 C 173.251 171.656,177.753 176.437,180.177 183.235 C 180.687 184.665,180.978 185.187,180.851 184.442 C 179.731 177.888,172.141 169.889,166.073 168.870 C 165.326 168.744,165.847 169.034,167.283 169.543 M306.759 169.285 C 313.545 170.929,318.404 175.902,320.547 183.398 C 320.918 184.694,321.230 185.417,321.240 185.005 C 321.407 178.325,311.829 168.481,305.402 168.729 C 304.957 168.746,305.567 168.996,306.759 169.285 M51.910 192.502 C 51.910 205.492,51.957 210.752,52.015 204.190 C 52.072 197.629,52.072 187.001,52.015 180.573 C 51.957 174.144,51.910 179.513,51.910 192.502 M60.533 194.189 C 60.533 208.107,60.580 213.800,60.637 206.842 C 60.694 199.883,60.694 188.496,60.637 181.537 C 60.580 174.578,60.533 180.272,60.533 194.189 M109.930 185.286 L 110.020 201.500 110.122 185.473 L 110.224 169.447 114.357 169.447 L 118.490 169.447 118.383 187.616 C 118.324 197.609,118.390 205.496,118.530 205.142 C 118.670 204.788,118.797 196.528,118.812 186.785 L 118.838 169.072 114.339 169.072 L 109.841 169.072 109.930 185.286 M188.566 169.414 C 188.566 169.615,192.699 179.999,197.751 192.491 C 202.822 205.031,206.935 215.718,206.935 216.354 C 206.935 220.802,198.934 229.787,192.784 232.247 C 191.151 232.899,190.917 233.412,191.591 234.864 C 191.859 235.443,191.891 235.345,191.730 234.432 C 191.527 233.280,191.591 233.217,194.261 231.922 C 200.382 228.954,207.302 220.720,207.308 216.397 C 207.309 215.667,203.699 206.238,198.337 192.967 C 193.402 180.753,189.249 170.458,189.108 170.091 C 188.869 169.469,189.163 169.430,193.301 169.528 L 197.751 169.634 202.532 182.381 C 205.162 189.391,208.063 197.235,208.978 199.813 C 209.894 202.390,210.652 204.299,210.664 204.055 C 210.692 203.435,208.485 197.254,202.858 182.193 L 198.025 169.260 193.295 169.155 C 190.409 169.091,188.566 169.192,188.566 169.414 M293.908 169.837 C 286.485 172.495,279.043 182.829,279.323 190.090 C 279.342 190.592,279.583 189.906,279.858 188.566 C 281.826 178.975,287.457 172.193,295.587 169.623 C 296.416 169.361,296.842 169.136,296.532 169.123 C 296.223 169.110,295.042 169.431,293.908 169.837 M77.397 185.005 C 77.398 193.664,77.447 197.154,77.507 192.758 C 77.567 188.363,77.567 181.278,77.507 177.013 C 77.446 172.749,77.397 176.345,77.397 185.005 M86.020 184.817 C 86.020 193.374,86.069 196.874,86.129 192.596 C 86.189 188.318,86.189 181.317,86.129 177.038 C 86.069 172.760,86.020 176.261,86.020 184.817 M135.427 170.759 C 135.431 171.584,135.508 171.877,135.598 171.411 C 135.688 170.944,135.684 170.270,135.590 169.911 C 135.496 169.553,135.423 169.934,135.427 170.759 M142.917 170.572 C 142.917 171.293,142.994 171.589,143.089 171.228 C 143.183 170.867,143.183 170.276,143.089 169.916 C 142.994 169.555,142.917 169.850,142.917 170.572 M224.072 172.144 C 220.026 183.930,217.453 191.711,217.565 191.823 C 217.638 191.896,219.404 186.942,221.490 180.815 C 223.576 174.688,225.222 169.614,225.148 169.540 C 225.073 169.465,224.589 170.637,224.072 172.144 M233.383 170.665 C 233.105 171.336,230.090 179.138,226.684 188.004 C 212.714 224.360,209.260 230.811,200.704 236.534 C 198.127 238.257,193.598 240.148,193.316 239.617 C 193.241 239.477,192.962 238.557,192.696 237.571 C 192.429 236.586,192.140 235.851,192.054 235.938 C 191.460 236.532,193.181 240.314,193.939 240.080 C 207.122 236.013,210.846 230.169,226.997 188.197 C 230.844 178.200,234.071 169.892,234.169 169.734 C 234.266 169.576,234.243 169.447,234.117 169.447 C 233.992 169.447,233.661 169.995,233.383 170.665 M241.876 172.516 L 241.799 175.772 245.736 175.890 C 247.902 175.954,249.673 175.881,249.673 175.726 C 249.672 175.572,247.992 175.445,245.938 175.445 L 242.205 175.445 242.078 172.352 L 241.952 169.260 241.876 172.516 M270.665 172.446 L 270.665 175.445 264.292 175.445 L 257.919 175.445 258.009 190.722 L 258.098 205.998 258.200 190.909 L 258.303 175.820 264.672 175.820 L 271.040 175.820 271.040 172.634 C 271.040 170.881,270.956 169.447,270.853 169.447 C 270.750 169.447,270.665 170.797,270.665 172.446 M335.649 173.008 C 335.650 174.658,335.716 175.286,335.795 174.404 C 335.874 173.523,335.873 172.173,335.793 171.405 C 335.712 170.638,335.647 171.359,335.649 173.008 M143.312 176.007 C 143.315 177.038,143.388 177.416,143.474 176.846 C 143.560 176.276,143.558 175.432,143.469 174.971 C 143.380 174.510,143.310 174.977,143.312 176.007 M135.887 206.748 C 135.887 224.067,135.933 231.098,135.989 222.371 C 136.045 213.644,136.045 199.474,135.989 190.881 C 135.932 182.288,135.887 189.428,135.887 206.748 M352.128 176.983 C 348.587 178.345,344.425 183.200,344.550 185.825 C 344.572 186.293,344.671 186.212,344.868 185.565 C 346.162 181.310,349.649 177.919,353.889 176.792 C 355.023 176.491,355.530 176.242,355.014 176.239 C 354.499 176.236,353.200 176.571,352.128 176.983 M344.229 187.816 C 344.229 188.538,344.307 188.833,344.401 188.472 C 344.495 188.112,344.495 187.521,344.401 187.160 C 344.307 186.799,344.229 187.095,344.229 187.816 M181.538 189.128 C 181.542 189.953,181.619 190.246,181.708 189.780 C 181.798 189.314,181.795 188.639,181.701 188.281 C 181.607 187.922,181.534 188.304,181.538 189.128 M321.783 192.127 C 321.781 193.983,321.845 194.790,321.923 193.919 C 322.002 193.049,322.003 191.531,321.926 190.546 C 321.848 189.560,321.784 190.272,321.783 192.127 M343.938 203.561 C 343.938 211.500,343.988 214.747,344.048 210.778 C 344.109 206.809,344.109 200.314,344.048 196.345 C 343.988 192.376,343.938 195.623,343.938 203.561 M279.055 195.689 C 279.055 198.060,279.115 199.030,279.190 197.844 C 279.264 196.659,279.264 194.719,279.190 193.533 C 279.115 192.348,279.055 193.318,279.055 195.689 M215.597 196.884 C 214.750 199.423,214.071 201.669,214.087 201.875 C 214.103 202.081,214.859 200.068,215.769 197.402 C 216.678 194.736,217.357 192.490,217.278 192.411 C 217.200 192.332,216.443 194.345,215.597 196.884 M287.267 197.001 C 287.270 198.032,287.343 198.409,287.429 197.839 C 287.515 197.269,287.513 196.426,287.424 195.965 C 287.335 195.504,287.265 195.970,287.267 197.001 M181.530 197.188 C 181.530 197.910,181.607 198.205,181.702 197.844 C 181.796 197.484,181.796 196.893,181.702 196.532 C 181.607 196.172,181.530 196.467,181.530 197.188 M180.751 200.995 C 180.506 202.056,180.374 202.992,180.457 203.075 C 180.541 203.159,180.816 202.365,181.068 201.312 C 181.321 200.259,181.453 199.323,181.362 199.232 C 181.271 199.140,180.996 199.934,180.751 200.995 M287.698 200.241 C 288.501 207.474,295.750 212.635,304.907 212.494 L 309.091 212.430 304.217 212.177 C 295.287 211.714,289.836 207.738,287.910 200.283 L 287.547 198.875 287.698 200.241 M86.413 202.437 C 86.853 206.332,90.796 211.479,93.294 211.419 C 93.632 211.411,93.402 211.183,92.784 210.913 C 89.922 209.663,87.777 206.822,86.794 202.980 C 86.277 200.963,86.241 200.911,86.413 202.437 M77.688 202.812 C 77.688 203.533,77.765 203.828,77.859 203.468 C 77.953 203.107,77.953 202.516,77.859 202.156 C 77.765 201.795,77.688 202.090,77.688 202.812 M109.509 202.171 C 109.457 202.978,108.164 205.574,107.092 207.023 C 105.918 208.612,102.777 210.598,100.469 211.211 C 99.335 211.513,98.780 211.771,99.236 211.784 C 103.270 211.904,110.534 205.215,109.719 202.131 C 109.572 201.572,109.548 201.577,109.509 202.171 M279.849 202.999 C 281.002 209.117,289.094 217.210,295.220 218.372 C 295.839 218.489,295.300 218.168,294.023 217.659 C 287.710 215.140,282.902 210.352,280.547 204.237 C 280.046 202.938,279.732 202.381,279.849 202.999 M213.342 203.970 C 213.089 204.816,212.951 205.578,213.035 205.662 C 213.119 205.747,213.396 205.123,213.649 204.277 C 213.903 203.431,214.041 202.670,213.957 202.585 C 213.872 202.501,213.596 203.124,213.342 203.970 M249.404 204.499 C 249.407 205.530,249.480 205.907,249.566 205.337 C 249.652 204.767,249.650 203.924,249.561 203.463 C 249.472 203.001,249.402 203.468,249.404 204.499 M178.728 206.576 C 175.774 212.756,170.515 216.868,163.636 218.378 C 162.385 218.653,161.836 218.885,162.399 218.902 C 165.902 219.005,172.553 215.572,175.647 212.062 C 177.205 210.295,180.658 204.138,180.287 203.788 C 180.201 203.708,179.500 204.962,178.728 206.576 M210.741 205.061 C 210.741 205.370,210.969 206.214,211.246 206.935 C 211.524 207.657,211.752 207.994,211.752 207.685 C 211.752 207.376,211.524 206.532,211.246 205.811 C 210.969 205.089,210.741 204.752,210.741 205.061 M78.549 207.123 C 79.465 211.726,83.882 216.952,87.723 217.977 C 88.238 218.114,87.732 217.703,86.598 217.062 C 83.006 215.032,80.800 212.424,79.232 208.353 C 78.733 207.058,78.425 206.504,78.549 207.123 M258.487 207.310 C 258.941 210.436,261.105 211.974,265.161 212.052 L 268.229 212.111 265.230 211.848 C 261.076 211.484,259.711 210.532,258.702 207.297 L 258.297 205.998 258.487 207.310 M250.073 209.195 C 249.895 213.059,256.324 219.058,260.464 218.891 C 261.231 218.860,261.104 218.775,259.946 218.545 C 255.338 217.632,252.438 214.969,250.591 209.955 C 250.321 209.222,250.088 208.880,250.073 209.195 M109.841 210.288 C 109.841 212.123,102.963 217.190,99.000 218.276 C 96.966 218.833,96.829 218.914,98.219 218.737 C 101.816 218.278,106.873 215.144,109.153 211.961 L 110.403 210.216 110.635 211.481 L 110.867 212.746 110.916 211.340 C 110.952 210.319,110.812 209.934,110.403 209.934 C 110.094 209.934,109.841 210.093,109.841 210.288 M314.527 210.895 C 312.980 211.372,311.993 211.773,312.332 211.786 C 313.065 211.813,317.901 210.355,317.901 210.107 C 317.901 209.867,317.706 209.913,314.527 210.895 M317.975 211.246 C 317.975 211.659,318.110 212.418,318.276 212.933 C 318.513 213.676,318.576 213.715,318.576 213.121 C 318.576 212.709,318.441 211.949,318.276 211.434 C 318.038 210.692,317.975 210.653,317.975 211.246 M144.044 224.836 L 144.133 238.238 144.236 225.023 C 144.293 217.755,144.412 211.809,144.501 211.809 C 144.590 211.809,145.545 212.742,146.624 213.883 C 148.858 216.245,152.888 218.431,155.576 218.738 L 157.263 218.931 155.332 218.431 C 152.094 217.593,149.210 215.944,146.929 213.628 C 143.768 210.417,143.944 209.732,144.044 224.836 M270.032 214.246 C 270.034 215.483,270.104 215.944,270.187 215.270 C 270.271 214.596,270.269 213.584,270.184 213.020 C 270.098 212.457,270.030 213.008,270.032 214.246 M111.114 216.120 L 111.153 217.994 114.995 218.101 L 118.838 218.208 118.770 216.227 L 118.703 214.246 118.562 216.026 L 118.422 217.807 114.902 217.807 L 111.381 217.807 111.229 216.026 L 111.076 214.246 111.114 216.120 M318.460 216.146 C 318.046 216.425,316.190 217.082,314.336 217.607 C 312.482 218.132,311.616 218.465,312.411 218.347 C 315.258 217.925,319.859 216.250,319.389 215.806 C 319.292 215.715,318.874 215.868,318.460 216.146 M269.823 217.650 C 269.703 217.770,268.368 218.092,266.855 218.366 C 265.342 218.640,264.561 218.879,265.117 218.898 C 266.518 218.945,269.863 218.195,270.122 217.777 C 270.358 217.394,270.162 217.311,269.823 217.650 M51.453 219.494 C 51.458 220.319,51.534 220.612,51.624 220.146 C 51.714 219.679,51.710 219.004,51.617 218.646 C 51.523 218.288,51.449 218.669,51.453 219.494 M89.410 218.539 C 90.129 218.865,92.137 219.078,91.815 218.794 C 91.729 218.718,90.984 218.553,90.159 218.428 C 89.114 218.269,88.887 218.302,89.410 218.539 M93.445 219.201 C 94.015 219.287,94.858 219.284,95.319 219.195 C 95.780 219.106,95.314 219.036,94.283 219.039 C 93.252 219.042,92.875 219.114,93.445 219.201 M300.952 219.210 C 302.249 219.283,304.273 219.282,305.450 219.208 C 306.628 219.134,305.567 219.074,303.093 219.075 C 300.619 219.075,299.655 219.136,300.952 219.210 M50.860 223.057 C 50.084 227.925,45.036 232.052,39.857 232.052 C 38.920 232.052,38.614 232.214,38.619 232.709 C 38.622 233.112,38.731 233.206,38.900 232.954 C 39.051 232.728,39.997 232.433,41.000 232.299 C 46.602 231.550,52.137 226.022,51.274 222.039 C 51.194 221.670,51.008 222.128,50.860 223.057 M59.464 223.142 C 58.290 229.365,53.420 234.802,46.868 237.206 C 45.303 237.780,44.896 238.026,45.736 237.889 C 47.545 237.594,52.246 235.236,53.886 233.801 C 56.435 231.569,60.441 223.861,59.895 222.239 C 59.803 221.966,59.609 222.373,59.464 223.142 M39.514 237.676 C 39.544 238.451,39.745 238.619,40.675 238.648 C 41.688 238.679,41.700 238.668,40.791 238.532 C 40.115 238.431,39.733 238.111,39.630 237.560 C 39.505 236.885,39.484 236.906,39.514 237.676 M336.440 247.142 L 334.958 248.735 336.551 247.253 C 337.427 246.438,338.144 245.721,338.144 245.660 C 338.144 245.376,337.818 245.660,336.440 247.142 M63.918 249.297 C 65.557 250.947,66.983 252.296,67.086 252.296 C 67.190 252.296,65.932 250.947,64.292 249.297 C 62.653 247.648,61.227 246.298,61.123 246.298 C 61.020 246.298,62.278 247.648,63.918 249.297 M331.771 251.734 C 330.861 252.662,330.200 253.421,330.303 253.421 C 330.406 253.421,331.236 252.662,332.146 251.734 C 333.057 250.806,333.717 250.047,333.614 250.047 C 333.511 250.047,332.682 250.806,331.771 251.734 M309.817 292.502 L 308.716 293.721 309.934 292.620 C 310.604 292.014,311.153 291.466,311.153 291.401 C 311.153 291.112,310.843 291.367,309.817 292.502 M89.410 293.533 C 90.215 294.358,90.958 295.033,91.061 295.033 C 91.164 295.033,90.590 294.358,89.784 293.533 C 88.979 292.709,88.236 292.034,88.133 292.034 C 88.030 292.034,88.604 292.709,89.410 293.533 M181.162 296.416 C 181.523 296.510,182.113 296.510,182.474 296.416 C 182.835 296.322,182.540 296.244,181.818 296.244 C 181.097 296.244,180.801 296.322,181.162 296.416 M187.535 296.801 C 188.102 296.887,189.030 296.887,189.597 296.801 C 190.164 296.715,189.700 296.645,188.566 296.645 C 187.432 296.645,186.968 296.715,187.535 296.801 M208.903 296.801 C 209.470 296.887,210.398 296.887,210.965 296.801 C 211.532 296.715,211.068 296.645,209.934 296.645 C 208.800 296.645,208.336 296.715,208.903 296.801 M95.970 300.024 C 95.970 300.088,96.518 300.636,97.188 301.242 L 98.407 302.343 97.306 301.125 C 96.279 299.989,95.970 299.734,95.970 300.024 M82.908 332.944 C 82.425 333.125,81.889 333.185,81.716 333.078 C 81.543 332.971,81.288 333.067,81.150 333.290 C 81.012 333.514,80.663 333.606,80.374 333.496 C 80.086 333.385,79.850 333.476,79.850 333.698 C 79.850 333.919,79.597 334.004,79.288 333.885 C 78.978 333.766,78.725 333.851,78.725 334.072 C 78.725 334.294,78.483 334.383,78.187 334.269 C 77.891 334.156,77.594 334.229,77.526 334.433 C 77.458 334.637,77.025 334.832,76.564 334.867 C 76.103 334.902,75.726 335.073,75.726 335.247 C 75.726 335.422,75.558 335.460,75.351 335.333 C 75.145 335.205,74.977 335.308,74.977 335.561 C 74.977 335.813,74.878 335.922,74.758 335.801 C 74.638 335.681,74.210 335.912,73.807 336.315 C 73.404 336.718,72.930 336.957,72.753 336.848 C 72.576 336.739,72.325 336.925,72.195 337.263 C 72.066 337.601,71.862 337.779,71.743 337.660 C 71.623 337.540,71.108 337.896,70.597 338.449 C 70.086 339.003,69.787 339.203,69.932 338.894 C 70.078 338.585,69.663 338.958,69.010 339.723 C 68.358 340.488,67.198 341.647,66.433 342.300 C 65.668 342.953,65.295 343.369,65.604 343.225 C 65.914 343.081,65.661 343.416,65.042 343.969 C 64.424 344.522,64.146 344.851,64.425 344.700 C 64.769 344.514,64.724 344.742,64.288 345.408 C 63.934 345.949,63.495 346.392,63.312 346.392 C 63.130 346.392,63.020 346.518,63.069 346.673 C 63.220 347.147,62.162 349.391,61.788 349.391 C 61.595 349.391,61.541 349.560,61.668 349.766 C 61.796 349.972,61.727 350.141,61.515 350.141 C 61.303 350.141,61.227 350.394,61.345 350.703 C 61.464 351.012,61.374 351.265,61.146 351.265 C 60.918 351.265,60.751 351.392,60.775 351.546 C 60.800 351.701,60.788 351.912,60.750 352.015 C 60.711 352.118,60.616 352.690,60.538 353.286 C 60.460 353.882,60.281 354.641,60.140 354.973 C 59.571 356.317,59.347 363.108,59.793 365.511 C 59.926 366.232,60.094 367.160,60.165 367.573 C 60.236 367.985,60.329 368.365,60.372 368.416 C 60.458 368.519,60.517 368.680,60.916 369.905 C 61.066 370.363,61.199 370.869,61.214 371.030 C 61.228 371.190,61.463 371.544,61.735 371.817 C 62.188 372.270,62.401 373.098,62.266 373.880 C 62.236 374.050,62.373 374.089,62.569 373.968 C 62.888 373.771,63.234 374.381,63.407 375.445 C 63.441 375.651,63.738 376.026,64.068 376.277 C 64.398 376.528,64.522 376.739,64.345 376.745 C 64.167 376.752,64.420 377.108,64.907 377.536 C 65.394 377.964,65.539 378.200,65.230 378.060 C 64.920 377.920,65.217 378.258,65.889 378.811 C 66.561 379.364,67.030 379.947,66.932 380.107 C 66.833 380.266,67.182 380.801,67.708 381.295 C 68.234 381.789,68.693 382.112,68.727 382.012 C 68.762 381.913,69.169 382.097,69.632 382.421 C 70.095 382.745,70.348 383.136,70.194 383.289 C 70.041 383.442,70.084 383.527,70.291 383.477 C 70.950 383.317,71.982 383.945,71.730 384.352 C 71.591 384.577,71.666 384.635,71.906 384.487 C 72.136 384.344,72.640 384.529,73.026 384.897 C 73.412 385.266,73.966 385.622,74.258 385.689 C 74.550 385.756,74.846 385.968,74.915 386.160 C 74.984 386.352,75.195 386.414,75.383 386.297 C 75.572 386.180,75.726 386.274,75.726 386.504 C 75.726 386.735,75.895 386.819,76.101 386.692 C 76.307 386.564,76.476 386.603,76.476 386.777 C 76.476 386.952,76.853 387.123,77.314 387.158 C 77.775 387.192,78.208 387.387,78.275 387.591 C 78.343 387.795,78.641 387.869,78.937 387.755 C 79.233 387.642,79.475 387.745,79.475 387.986 C 79.475 388.226,79.644 388.319,79.850 388.191 C 80.056 388.064,80.433 388.088,80.687 388.245 C 80.941 388.402,81.405 388.569,81.718 388.615 C 82.031 388.662,83.046 388.827,83.974 388.981 C 84.902 389.136,86.589 389.263,87.723 389.263 C 88.857 389.263,90.544 389.136,91.471 388.981 C 92.399 388.827,93.414 388.662,93.727 388.615 C 94.040 388.569,94.504 388.402,94.758 388.245 C 95.012 388.088,95.389 388.064,95.595 388.191 C 95.801 388.319,95.970 388.226,95.970 387.986 C 95.970 387.745,96.223 387.646,96.532 387.764 C 96.842 387.883,97.095 387.799,97.095 387.577 C 97.095 387.355,97.348 387.271,97.657 387.390 C 97.966 387.508,98.219 387.432,98.219 387.220 C 98.219 387.008,98.388 386.939,98.594 387.067 C 98.800 387.194,98.969 387.145,98.969 386.958 C 98.969 386.585,102.076 385.077,102.221 385.380 C 102.270 385.483,102.566 385.230,102.877 384.817 C 103.189 384.405,103.449 384.175,103.456 384.305 C 103.462 384.436,104.084 383.979,104.838 383.288 C 105.592 382.598,106.323 382.104,106.464 382.191 C 106.605 382.278,107.380 381.639,108.187 380.772 L 109.653 379.194 108.132 380.506 C 107.295 381.228,107.633 380.812,108.882 379.583 C 110.131 378.354,110.929 377.486,110.656 377.654 C 110.249 377.906,110.245 377.824,110.638 377.196 C 110.900 376.775,111.276 376.530,111.473 376.652 C 111.670 376.774,111.714 376.684,111.572 376.454 C 111.429 376.223,111.642 375.705,112.045 375.303 C 112.448 374.900,112.679 374.472,112.559 374.352 C 112.438 374.231,112.547 374.133,112.799 374.133 C 113.052 374.133,113.155 373.964,113.027 373.758 C 112.900 373.552,112.984 373.383,113.215 373.383 C 113.445 373.383,113.529 373.215,113.402 373.008 C 113.275 372.802,113.313 372.634,113.488 372.634 C 113.662 372.634,113.833 372.256,113.868 371.796 C 113.903 371.335,114.098 370.902,114.302 370.834 C 114.505 370.766,114.579 370.469,114.466 370.173 C 114.352 369.877,114.456 369.634,114.696 369.634 C 114.937 369.634,115.038 369.480,114.921 369.291 C 114.804 369.102,114.895 368.470,115.122 367.885 C 116.016 365.585,116.238 355.979,115.437 354.264 C 115.389 354.161,115.311 353.908,115.263 353.702 C 115.215 353.496,115.135 353.201,115.085 353.046 C 115.036 352.891,114.968 352.638,114.935 352.484 C 114.902 352.329,114.662 351.819,114.402 351.351 C 114.142 350.883,114.032 350.335,114.157 350.133 C 114.281 349.931,114.195 349.766,113.964 349.766 C 113.734 349.766,113.650 349.597,113.777 349.391 C 113.904 349.185,113.841 349.016,113.637 349.016 C 113.264 349.016,112.626 347.575,112.765 347.048 C 112.806 346.893,112.661 346.767,112.443 346.767 C 112.224 346.767,112.139 346.616,112.253 346.431 C 112.367 346.246,112.198 345.995,111.877 345.871 C 111.555 345.748,111.387 345.495,111.502 345.309 C 111.617 345.123,111.435 344.865,111.097 344.735 C 110.759 344.606,110.578 344.405,110.694 344.289 C 110.810 344.173,110.370 343.564,109.717 342.937 C 109.063 342.309,108.789 341.944,109.108 342.125 C 109.426 342.307,109.089 341.956,108.358 341.345 C 107.627 340.735,106.362 339.554,105.546 338.721 C 104.730 337.888,104.202 337.435,104.373 337.715 C 104.578 338.048,104.346 338.001,103.701 337.578 C 103.160 337.223,102.718 336.774,102.718 336.580 C 102.718 336.385,102.555 336.326,102.357 336.449 C 102.158 336.572,101.687 336.371,101.310 336.002 C 100.933 335.634,100.294 335.275,99.890 335.205 C 99.487 335.134,99.100 334.922,99.031 334.734 C 98.962 334.545,98.751 334.486,98.562 334.603 C 98.374 334.719,98.219 334.641,98.219 334.429 C 98.219 334.218,97.966 334.141,97.657 334.260 C 97.348 334.379,97.095 334.294,97.095 334.072 C 97.095 333.851,96.842 333.766,96.532 333.885 C 96.223 334.004,95.970 333.904,95.970 333.664 C 95.970 333.423,95.801 333.331,95.595 333.458 C 95.389 333.586,95.012 333.561,94.758 333.404 C 93.699 332.750,84.395 332.388,82.908 332.944 M189.222 341.033 C 189.686 341.122,190.445 341.122,190.909 341.033 C 191.373 340.944,190.993 340.871,190.066 340.871 C 189.138 340.871,188.758 340.944,189.222 341.033 M207.971 341.034 C 208.437 341.123,209.112 341.120,209.470 341.026 C 209.829 340.932,209.447 340.859,208.622 340.863 C 207.798 340.867,207.504 340.944,207.971 341.034 " stroke="none" fill="#9f9f9f" fill-rule="evenodd"></path></g></svg>