<svg id="svg" version="1.1" xmlns="http://www.w3.org/2000/svg" xmlns:xlink="http://www.w3.org/1999/xlink" width="400" height="400" viewBox="0, 0, 400,400"><g id="svgg"><path id="path0" d="M81.350 0.611 C 38.920 6.366,6.109 39.361,0.576 81.837 C -0.297 88.544,-0.297 311.456,0.576 318.163 C 6.136 360.850,39.150 393.864,81.837 399.424 C 88.544 400.297,311.456 400.297,318.163 399.424 C 360.846 393.864,393.864 360.846,399.424 318.163 C 400.297 311.456,400.297 88.544,399.424 81.837 C 393.863 39.147,360.853 6.137,318.163 0.576 C 311.747 -0.259,87.524 -0.226,81.350 0.611 M317.481 13.228 C 333.262 18.799,337.623 38.931,325.620 50.802 C 311.777 64.493,288.293 55.309,287.263 35.801 C 286.417 19.767,302.331 7.879,317.481 13.228 M214.092 44.044 C 268.692 49.317,315.981 83.600,337.687 133.646 C 338.882 136.401,340.769 141.016,340.769 141.184 C 340.769 141.238,338.280 138.797,335.239 135.759 C 270.586 71.185,123.220 72.449,62.415 138.099 L 59.248 141.518 60.022 139.456 C 80.074 86.082,130.228 48.792,188.754 43.742 C 193.229 43.356,208.897 43.543,214.092 44.044 M69.903 48.185 C 84.502 51.987,86.518 72.056,72.970 78.726 C 66.600 81.862,59.202 80.619,54.146 75.563 C 42.514 63.931,53.964 44.033,69.903 48.185 M259.044 160.825 L 259.044 167.948 265.417 167.948 L 271.790 167.948 271.790 171.134 L 271.790 174.321 265.398 174.321 L 259.006 174.321 259.119 189.972 L 259.231 205.623 260.250 207.355 C 261.751 209.908,263.174 210.464,267.549 210.203 L 271.040 209.994 271.040 212.964 C 271.040 214.596,271.050 216.059,271.063 216.214 C 271.184 217.734,259.879 217.740,256.948 216.220 C 250.870 213.069,250.047 209.880,250.047 189.485 L 250.047 174.321 246.298 174.321 L 242.549 174.321 242.549 170.947 L 242.549 167.573 246.485 167.573 L 250.422 167.573 250.422 161.654 L 250.422 155.736 254.452 154.765 C 256.668 154.231,258.608 153.774,258.763 153.748 C 258.918 153.723,259.044 156.907,259.044 160.825 M360.637 170.523 L 360.637 174.599 357.688 174.856 C 353.923 175.184,350.920 176.562,348.701 178.978 C 345.219 182.770,344.899 184.751,344.895 202.530 L 344.892 216.307 340.580 216.307 L 336.268 216.307 336.281 191.927 L 336.294 167.547 340.125 167.653 L 343.955 167.760 344.142 172.579 L 344.330 177.398 345.378 175.111 C 347.733 169.969,353.002 166.645,359.044 166.489 L 360.637 166.448 360.637 170.523 M167.223 167.421 C 187.678 173.429,188.254 208.748,168.021 216.318 C 160.623 219.086,152.836 217.638,147.485 212.500 L 145.080 210.190 145.080 223.558 L 145.080 236.926 140.769 236.926 L 136.457 236.926 136.455 205.530 C 136.454 188.261,136.345 172.741,136.212 171.040 L 135.971 167.948 139.909 167.948 L 143.847 167.948 144.086 170.478 C 144.217 171.870,144.331 173.683,144.340 174.508 L 144.355 176.007 145.555 174.508 C 150.766 167.992,159.474 165.145,167.223 167.421 M309.020 167.745 C 317.320 170.302,322.128 177.867,322.665 189.218 L 322.883 193.807 305.678 193.904 L 288.472 194.002 288.354 195.446 C 288.080 198.779,290.569 204.100,293.664 206.797 C 298.565 211.068,307.254 211.977,315.966 209.129 C 318.748 208.219,318.700 208.183,319.530 211.780 C 320.282 215.044,320.413 214.854,316.589 216.043 C 292.406 223.562,274.599 207.997,280.743 184.710 C 284.230 171.496,296.772 163.971,309.020 167.745 M61.399 193.721 L 61.293 219.869 60.272 222.868 C 57.550 230.862,52.916 235.119,45.173 236.739 C 40.535 237.709,40.257 237.634,39.980 235.333 C 39.483 231.187,39.601 230.553,40.872 230.553 C 43.916 230.553,48.769 227.832,50.169 225.341 C 52.186 221.752,52.228 221.142,52.385 193.346 L 52.530 167.573 57.018 167.573 L 61.505 167.573 61.399 193.721 M119.524 192.127 L 119.409 216.682 115.562 216.682 L 111.715 216.682 111.682 214.527 C 111.664 213.341,111.538 211.528,111.401 210.497 L 111.153 208.622 110.301 209.992 C 104.951 218.596,89.931 220.354,83.293 213.152 C 78.693 208.162,78.260 205.835,78.075 185.098 L 77.922 167.948 82.426 167.948 L 86.930 167.948 87.059 184.349 C 87.201 202.163,87.215 202.294,89.457 205.875 C 93.761 212.748,105.786 210.802,109.542 202.624 C 110.393 200.772,110.404 200.557,110.511 184.161 L 110.620 167.573 115.130 167.573 L 119.640 167.573 119.524 192.127 M203.807 181.068 C 206.561 188.388,209.685 197.033,210.750 200.280 C 211.815 203.526,212.719 206.141,212.759 206.090 C 212.799 206.040,215.658 197.563,219.113 187.254 C 222.568 176.945,225.515 168.378,225.662 168.217 C 225.808 168.055,227.956 167.971,230.435 168.029 L 234.941 168.135 227.933 186.317 C 212.860 225.423,209.266 231.791,199.493 236.710 C 194.037 239.456,194.034 239.455,192.712 234.941 L 191.674 231.395 193.663 230.571 C 198.606 228.522,203.593 223.797,206.351 218.550 C 208.392 214.664,209.494 218.273,196.303 185.650 L 188.984 167.551 193.893 167.656 L 198.801 167.760 203.807 181.068 M300.525 172.875 C 294.793 173.724,289.668 178.972,288.730 184.954 L 288.398 187.067 301.422 187.067 L 314.445 187.067 314.671 186.168 C 316.341 179.515,308.083 171.756,300.525 172.875 M157.417 174.124 C 151.183 175.387,146.573 180.296,145.425 186.893 C 144.604 191.606,145.174 199.739,146.527 202.631 C 151.547 213.357,166.432 213.396,171.685 202.697 C 178.521 188.777,169.936 171.586,157.417 174.124 M73.852 255.727 C 142.724 311.614,274.342 307.668,334.754 247.906 C 337.941 244.754,340.582 242.174,340.622 242.174 C 341.155 242.174,334.873 256.010,331.772 261.666 C 275.898 363.606,130.652 366.134,70.885 266.206 C 67.037 259.773,59.606 244.175,59.606 242.532 C 59.606 242.370,61.926 244.554,64.761 247.386 C 67.596 250.217,71.687 253.971,73.852 255.727 M96.335 331.784 C 117.499 337.724,124.131 364.147,108.378 379.766 C 90.434 397.558,59.981 384.628,59.981 359.217 C 59.981 340.452,78.209 326.696,96.335 331.784 " stroke="none" fill="#cce4fc" fill-rule="evenodd"></path><path id="path1" d="M190.066 43.880 C 132.340 48.104,80.703 85.687,60.856 137.922 L 59.943 140.324 64.677 135.577 C 112.289 87.826,208.729 73.491,283.974 102.979 C 304.688 111.096,325.822 124.756,337.335 137.468 C 340.448 140.905,340.474 140.836,338.150 135.310 C 313.473 76.641,252.957 39.278,190.066 43.880 M334.958 247.965 C 272.361 311.356,128.540 311.243,64.761 247.753 C 62.132 245.136,59.981 243.050,59.981 243.118 C 59.981 244.350,66.607 258.345,69.934 264.143 C 127.155 363.838,270.909 364.648,329.334 265.604 C 332.527 260.193,341.197 241.970,340.280 242.600 C 340.239 242.627,337.844 245.042,334.958 247.965 " stroke="none" fill="#fb7c15" fill-rule="evenodd"></path><path id="path2" d="M304.705 12.952 C 290.713 16.345,283.474 32.064,290.058 44.760 C 297.124 58.387,314.676 61.012,325.619 50.078 C 341.249 34.460,326.197 7.740,304.705 12.952 M62.135 48.368 C 47.560 52.051,45.477 71.917,58.974 78.520 C 72.967 85.366,87.728 68.807,79.377 55.630 C 75.863 50.085,68.168 46.844,62.135 48.368 M254.639 155.170 L 250.797 156.103 250.797 162.025 L 250.797 167.948 246.860 167.948 L 242.924 167.948 242.924 170.947 L 242.924 173.946 246.673 173.946 L 250.422 173.946 250.422 189.425 C 250.422 201.936,250.529 205.315,250.981 207.050 C 253.052 215.003,258.722 218.440,267.252 216.913 C 271.084 216.227,270.965 216.358,270.755 213.048 L 270.583 210.352 267.504 210.569 C 259.191 211.156,258.669 209.866,258.669 188.735 L 258.669 173.946 265.042 173.946 L 271.415 173.946 271.415 170.947 L 271.415 167.948 265.050 167.948 L 258.686 167.948 258.584 161.092 L 258.482 154.237 254.639 155.170 M158.552 167.212 C 154.012 167.901,149.126 170.709,146.459 174.164 C 144.378 176.858,143.955 176.798,143.955 173.811 C 143.955 172.499,143.848 170.643,143.717 169.687 L 143.478 167.948 139.910 167.948 L 136.342 167.948 136.587 172.505 C 136.722 175.012,136.832 190.447,136.832 206.807 L 136.832 236.551 140.769 236.551 L 144.705 236.551 144.705 223.243 C 144.705 208.242,144.522 208.921,147.696 212.145 C 156.878 221.471,173.457 217.721,179.528 204.947 C 188.496 186.076,176.496 164.488,158.552 167.212 M355.389 167.359 C 351.093 168.555,347.171 171.863,345.623 175.598 C 344.190 179.055,343.768 178.423,343.768 172.821 L 343.768 167.948 340.112 167.948 L 336.457 167.949 336.457 192.034 L 336.457 216.120 340.487 216.226 L 344.517 216.333 344.517 202.615 C 344.517 194.490,344.686 187.798,344.931 186.201 C 346.002 179.220,350.611 174.942,357.403 174.624 L 359.884 174.508 359.886 170.665 L 359.888 166.823 358.482 166.856 C 357.709 166.875,356.317 167.101,355.389 167.359 M299.344 167.441 C 286.512 170.113,279.481 180.408,280.134 195.569 C 280.870 212.656,295.837 221.256,315.570 215.932 C 319.886 214.767,319.849 214.814,319.093 211.523 C 318.602 209.390,318.344 208.849,317.902 209.024 C 303.205 214.868,289.209 208.953,288.043 196.404 L 287.802 193.814 305.151 193.814 L 322.500 193.814 322.289 189.222 C 321.603 174.358,311.623 164.884,299.344 167.441 M52.855 190.159 C 52.851 219.891,52.522 223.452,49.452 226.939 C 47.793 228.824,44.442 230.475,41.591 230.813 C 39.691 231.038,39.677 231.049,39.875 232.202 C 39.985 232.841,40.187 234.166,40.324 235.145 C 40.615 237.232,41.092 237.345,45.361 236.342 C 51.387 234.926,55.434 231.914,58.031 226.912 C 61.157 220.892,61.106 221.455,61.106 192.817 L 61.106 167.573 56.982 167.573 L 52.858 167.573 52.855 190.159 M78.442 185.098 C 78.608 205.656,78.947 207.552,83.331 212.400 C 90.203 220.001,104.793 218.404,110.136 209.466 C 111.021 207.985,111.715 208.149,111.718 209.841 C 111.719 210.614,111.828 212.385,111.959 213.777 L 112.198 216.307 115.692 216.307 L 119.186 216.307 119.202 192.127 L 119.217 167.948 115.110 167.948 L 111.002 167.948 110.890 184.536 L 110.778 201.125 109.728 203.262 C 105.813 211.235,93.481 213.026,89.180 206.246 C 86.872 202.607,86.838 202.314,86.687 184.349 L 86.548 167.948 82.426 167.948 L 78.303 167.948 78.442 185.098 M189.857 168.591 C 189.998 168.959,194.152 179.253,199.087 191.468 C 204.449 204.738,208.059 214.168,208.058 214.898 C 208.052 219.213,201.132 227.454,195.033 230.412 C 193.538 231.137,192.315 231.869,192.315 232.039 C 192.315 232.294,193.444 236.237,194.004 237.939 C 194.248 238.682,198.448 237.044,201.454 235.034 C 210.084 229.262,213.440 222.940,228.061 184.911 L 234.583 167.948 230.352 167.948 L 226.121 167.948 225.000 171.228 C 218.464 190.351,214.457 202.281,213.919 204.217 C 213.010 207.496,212.522 207.204,211.097 202.530 C 210.421 200.314,207.310 191.668,204.184 183.318 L 198.500 168.135 194.051 168.029 C 189.913 167.930,189.619 167.970,189.857 168.591 M307.207 173.224 C 311.706 174.908,314.614 179.144,314.843 184.349 L 314.979 187.441 301.580 187.441 L 288.182 187.441 288.371 185.094 C 289.080 176.261,298.856 170.100,307.207 173.224 M164.838 174.381 C 178.429 179.466,177.262 206.552,163.281 210.522 C 152.194 213.671,144.731 206.503,144.715 192.690 C 144.698 178.496,153.771 170.241,164.838 174.381 " stroke="none" fill="#565657" fill-rule="evenodd"></path><path id="path3" d="M192.221 43.751 C 192.685 43.840,193.444 43.840,193.908 43.751 C 194.372 43.662,193.993 43.589,193.065 43.589 C 192.137 43.589,191.757 43.662,192.221 43.751 M206.092 43.751 C 206.556 43.840,207.315 43.840,207.779 43.751 C 208.243 43.662,207.863 43.589,206.935 43.589 C 206.007 43.589,205.628 43.662,206.092 43.751 M303.655 85.286 C 304.775 86.420,305.776 87.348,305.879 87.348 C 305.982 87.348,305.150 86.420,304.030 85.286 C 302.910 84.152,301.909 83.224,301.806 83.224 C 301.703 83.224,302.535 84.152,303.655 85.286 M94.087 87.254 L 90.909 90.534 94.189 87.356 C 95.993 85.608,97.470 84.132,97.470 84.076 C 97.470 83.803,97.039 84.207,94.087 87.254 M189.972 87.994 C 190.642 88.077,191.739 88.077,192.409 87.994 C 193.079 87.911,192.530 87.843,191.190 87.843 C 189.850 87.843,189.302 87.911,189.972 87.994 M207.591 87.994 C 208.261 88.077,209.358 88.077,210.028 87.994 C 210.698 87.911,210.150 87.843,208.810 87.843 C 207.470 87.843,206.921 87.911,207.591 87.994 M183.037 88.356 C 183.397 88.450,183.988 88.450,184.349 88.356 C 184.709 88.262,184.414 88.184,183.693 88.184 C 182.971 88.184,182.676 88.262,183.037 88.356 M215.651 88.356 C 216.012 88.450,216.603 88.450,216.963 88.356 C 217.324 88.262,217.029 88.184,216.307 88.184 C 215.586 88.184,215.291 88.262,215.651 88.356 M308.716 90.347 C 309.521 91.172,310.265 91.846,310.368 91.846 C 310.471 91.846,309.896 91.172,309.091 90.347 C 308.286 89.522,307.542 88.847,307.439 88.847 C 307.336 88.847,307.911 89.522,308.716 90.347 M334.958 135.333 C 336.598 136.982,338.024 138.332,338.127 138.332 C 338.230 138.332,336.973 136.982,335.333 135.333 C 333.693 133.683,332.267 132.334,332.164 132.334 C 332.061 132.334,333.318 133.683,334.958 135.333 M64.650 135.426 L 63.168 137.020 64.761 135.538 C 66.243 134.160,66.527 133.833,66.243 133.833 C 66.182 133.833,65.465 134.550,64.650 135.426 M60.188 139.862 C 60.283 140.016,60.149 140.218,59.890 140.310 C 59.631 140.403,59.518 140.587,59.640 140.719 C 59.761 140.852,60.142 140.650,60.485 140.271 C 61.000 139.701,61.014 139.581,60.562 139.581 C 60.261 139.581,60.092 139.708,60.188 139.862 M298.062 173.062 C 293.208 174.761,289.047 179.566,288.474 184.133 C 288.273 185.736,288.277 185.732,288.832 183.787 C 290.427 178.200,294.349 174.305,299.719 172.974 C 300.781 172.711,301.187 172.504,300.656 172.496 C 300.141 172.488,298.973 172.743,298.062 173.062 M304.879 172.854 C 309.406 173.921,313.075 177.501,314.421 182.167 C 314.901 183.827,314.910 183.836,314.740 182.444 C 314.166 177.756,308.441 172.296,304.297 172.484 C 303.791 172.507,304.018 172.651,304.879 172.854 M155.201 174.195 C 150.203 175.939,145.858 180.942,145.269 185.630 C 145.068 187.238,145.071 187.235,145.627 185.286 C 147.240 179.636,151.242 175.645,156.795 174.150 C 157.907 173.851,158.355 173.617,157.826 173.613 C 157.310 173.610,156.129 173.871,155.201 174.195 M162.420 173.978 C 167.567 175.191,171.924 179.920,173.363 185.857 C 173.649 187.038,173.897 187.619,173.914 187.148 C 174.117 181.612,166.780 173.384,161.842 173.608 C 161.334 173.631,161.559 173.775,162.420 173.978 M294.963 187.347 C 298.740 187.408,304.813 187.408,308.459 187.347 C 312.106 187.286,309.016 187.236,301.593 187.236 C 294.171 187.236,291.187 187.286,294.963 187.347 M144.852 192.690 C 144.852 195.473,144.911 196.612,144.983 195.220 C 145.055 193.828,145.055 191.551,144.983 190.159 C 144.911 188.768,144.852 189.906,144.852 192.690 M174.086 192.127 C 174.087 194.396,174.148 195.275,174.223 194.082 C 174.298 192.889,174.297 191.033,174.222 189.958 C 174.146 188.883,174.085 189.859,174.086 192.127 M173.280 198.515 C 172.128 203.953,169.037 207.829,164.300 209.777 C 161.912 210.759,162.079 211.002,164.545 210.132 C 169.179 208.497,174.624 200.802,173.881 196.940 C 173.811 196.577,173.540 197.286,173.280 198.515 M145.289 200.125 C 145.802 204.647,151.662 210.725,155.459 210.675 C 155.833 210.670,155.193 210.277,154.037 209.802 C 149.234 207.826,146.799 204.885,145.304 199.250 C 145.194 198.838,145.187 199.231,145.289 200.125 M157.742 210.959 C 158.624 211.038,159.973 211.037,160.741 210.957 C 161.509 210.876,160.787 210.811,159.138 210.813 C 157.488 210.814,156.860 210.880,157.742 210.959 M337.749 245.080 L 336.457 246.485 337.863 245.194 C 338.636 244.483,339.269 243.850,339.269 243.788 C 339.269 243.501,338.952 243.771,337.749 245.080 M64.667 247.798 C 66.514 249.653,68.110 251.172,68.213 251.172 C 68.316 251.172,66.889 249.653,65.042 247.798 C 63.195 245.942,61.600 244.424,61.496 244.424 C 61.393 244.424,62.820 245.942,64.667 247.798 M331.751 251.078 L 330.459 252.484 331.865 251.192 C 333.174 249.989,333.443 249.672,333.157 249.672 C 333.094 249.672,332.462 250.305,331.751 251.078 M310.008 291.565 L 308.716 292.971 310.122 291.679 C 310.895 290.968,311.528 290.336,311.528 290.273 C 311.528 289.987,311.210 290.257,310.008 291.565 M90.909 292.784 C 91.714 293.608,92.458 294.283,92.561 294.283 C 92.664 294.283,92.089 293.608,91.284 292.784 C 90.479 291.959,89.735 291.284,89.632 291.284 C 89.529 291.284,90.104 291.959,90.909 292.784 M181.537 294.916 C 181.898 295.011,182.488 295.011,182.849 294.916 C 183.210 294.822,182.915 294.745,182.193 294.745 C 181.471 294.745,181.176 294.822,181.537 294.916 M187.915 295.302 C 188.485 295.388,189.329 295.386,189.790 295.297 C 190.251 295.208,189.784 295.137,188.754 295.140 C 187.723 295.143,187.345 295.216,187.915 295.302 M210.408 295.302 C 210.978 295.388,211.821 295.386,212.283 295.297 C 212.744 295.208,212.277 295.137,211.246 295.140 C 210.216 295.143,209.838 295.216,210.408 295.302 M96.157 298.032 C 97.382 299.269,98.468 300.281,98.571 300.281 C 98.674 300.281,97.757 299.269,96.532 298.032 C 95.308 296.795,94.222 295.783,94.119 295.783 C 94.016 295.783,94.933 296.795,96.157 298.032 M301.195 300.375 L 300.094 301.593 301.312 300.492 C 301.982 299.887,302.530 299.338,302.530 299.274 C 302.530 298.984,302.221 299.239,301.195 300.375 M84.161 331.401 C 60.783 335.687,52.197 364.208,69.525 380.025 C 94.182 402.535,130.505 370.617,111.604 343.049 C 105.901 334.731,93.865 329.623,84.161 331.401 M190.347 339.534 C 190.811 339.623,191.570 339.623,192.034 339.534 C 192.498 339.444,192.118 339.371,191.190 339.371 C 190.262 339.371,189.883 339.444,190.347 339.534 M208.346 339.534 C 208.812 339.624,209.487 339.620,209.845 339.527 C 210.203 339.433,209.822 339.359,208.997 339.364 C 208.172 339.368,207.879 339.444,208.346 339.534 " stroke="none" fill="#9d9c9c" fill-rule="evenodd"></path><path id="path4" d="M304.405 12.565 C 284.147 18.106,280.967 45.672,299.531 54.816 C 319.646 64.723,340.138 43.513,329.680 23.611 C 325.133 14.958,313.785 9.999,304.405 12.565 M315.104 12.942 C 336.696 18.454,337.884 48.086,316.821 55.766 C 303.143 60.754,287.573 49.578,287.541 34.751 C 287.510 20.525,301.488 9.465,315.104 12.942 M61.030 48.334 C 55.055 50.244,50.226 55.765,49.687 61.302 L 49.505 63.168 49.893 61.297 C 53.611 43.391,78.746 44.125,81.849 62.231 C 81.937 62.746,81.950 62.344,81.878 61.337 C 81.236 52.327,70.155 45.416,61.030 48.334 M81.658 66.074 C 80.800 73.348,74.552 79.134,66.422 80.182 C 64.793 80.392,64.391 80.522,65.272 80.552 C 73.553 80.842,82.634 72.562,82.025 65.276 C 81.930 64.135,81.871 64.263,81.658 66.074 M49.673 66.686 C 50.157 72.677,56.523 79.330,62.473 80.063 C 63.633 80.205,63.514 80.126,61.865 79.656 C 55.934 77.969,50.958 72.529,49.852 66.522 L 49.510 64.667 49.673 66.686 M196.513 88.001 C 198.307 88.070,201.344 88.070,203.261 88.002 C 205.179 87.934,203.711 87.878,200.000 87.877 C 196.289 87.877,194.720 87.933,196.513 88.001 M254.452 154.765 L 250.422 155.736 250.422 161.654 L 250.422 167.573 246.485 167.573 L 242.549 167.573 242.549 170.947 L 242.549 174.321 246.298 174.321 L 250.047 174.321 250.047 189.485 C 250.047 205.329,250.181 207.004,251.729 210.517 C 253.401 214.308,256.746 216.887,260.452 217.243 L 262.231 217.413 260.696 217.077 C 255.574 215.956,252.465 212.747,250.981 207.050 C 250.529 205.315,250.422 201.936,250.422 189.425 L 250.422 173.946 246.673 173.946 L 242.924 173.946 242.924 170.947 L 242.924 167.948 246.860 167.948 L 250.797 167.948 250.797 162.029 L 250.797 156.111 254.725 155.146 L 258.653 154.181 258.764 161.158 L 258.874 168.135 258.959 160.918 C 259.006 156.949,258.918 153.723,258.763 153.748 C 258.608 153.774,256.668 154.231,254.452 154.765 M358.482 166.721 L 359.888 166.868 359.888 170.782 C 359.888 173.141,360.036 174.695,360.262 174.695 C 360.490 174.695,360.637 173.071,360.637 170.572 L 360.637 166.448 358.857 166.511 C 357.225 166.569,357.194 166.586,358.482 166.721 M155.576 167.529 C 151.473 168.853,148.278 171.026,145.967 174.064 L 144.517 175.970 144.301 173.552 L 144.084 171.134 144.020 173.664 C 143.939 176.817,144.346 176.900,146.459 174.164 C 149.132 170.702,154.038 167.886,158.552 167.221 C 160.401 166.949,160.467 166.911,159.138 166.889 C 158.313 166.875,156.710 167.163,155.576 167.529 M164.592 167.221 C 173.695 168.561,180.611 176.305,182.149 186.879 C 182.393 188.557,182.488 188.787,182.522 187.783 C 182.847 178.212,172.456 166.574,163.849 166.869 C 162.791 166.905,162.946 166.978,164.592 167.221 M301.304 167.093 C 301.969 167.176,303.150 167.178,303.928 167.096 C 304.706 167.015,304.161 166.948,302.718 166.946 C 301.275 166.944,300.638 167.011,301.304 167.093 M353.433 167.549 C 349.704 169.007,346.530 172.135,345.008 175.850 L 344.330 177.507 344.142 172.634 L 343.955 167.760 340.206 167.740 L 336.457 167.721 340.112 167.847 L 343.768 167.974 343.768 172.834 C 343.768 178.422,344.191 179.053,345.623 175.598 C 347.171 171.863,351.093 168.555,355.389 167.359 C 356.523 167.044,356.769 166.885,356.139 166.874 C 355.623 166.865,354.406 167.169,353.433 167.549 M295.408 168.051 C 287.248 170.843,279.792 180.801,280.073 188.532 C 280.092 189.066,280.333 188.407,280.608 187.067 C 282.841 176.187,289.167 169.560,299.344 167.441 C 299.817 167.342,299.679 167.272,298.969 167.251 C 298.351 167.232,296.748 167.592,295.408 168.051 M307.509 167.785 C 315.026 169.606,319.904 175.158,321.817 184.067 C 322.104 185.408,322.353 186.076,322.369 185.552 C 322.619 177.572,313.357 167.028,306.279 167.233 C 305.764 167.248,306.317 167.496,307.509 167.785 M52.660 191.003 C 52.660 203.993,52.707 209.252,52.765 202.691 C 52.822 196.130,52.822 185.502,52.765 179.073 C 52.707 172.645,52.660 178.013,52.660 191.003 M61.188 192.724 C 61.095 221.441,61.143 220.918,58.031 226.912 C 55.468 231.849,51.418 234.901,45.544 236.321 C 44.309 236.619,43.648 236.878,44.074 236.895 C 50.408 237.150,57.500 231.007,60.272 222.868 L 61.293 219.869 61.400 198.688 C 61.459 187.038,61.453 175.230,61.388 172.446 C 61.323 169.663,61.233 178.787,61.188 192.724 M110.511 184.161 C 110.404 200.560,110.393 200.771,109.542 202.624 C 107.839 206.329,103.848 209.360,99.910 209.940 C 98.210 210.189,98.164 210.220,99.424 210.263 C 103.053 210.384,107.822 207.145,109.728 203.262 L 110.778 201.125 110.890 184.536 L 111.002 167.948 115.121 167.948 L 119.240 167.948 119.133 186.117 C 119.074 196.110,119.140 203.996,119.280 203.643 C 119.420 203.289,119.547 195.028,119.561 185.286 L 119.588 167.573 115.104 167.573 L 110.620 167.573 110.511 184.161 M196.303 185.650 C 209.494 218.273,208.392 214.664,206.351 218.550 C 203.593 223.797,198.606 228.522,193.663 230.571 L 191.674 231.395 192.712 234.941 C 194.034 239.455,194.037 239.456,199.493 236.710 C 209.155 231.846,213.049 225.011,227.386 187.748 C 230.772 178.948,233.894 170.851,234.324 169.754 C 234.754 168.657,234.935 167.929,234.728 168.135 C 234.520 168.341,231.400 176.186,227.795 185.567 C 213.413 222.987,210.065 229.274,201.454 235.034 C 198.448 237.044,194.248 238.682,194.004 237.939 C 193.444 236.237,192.315 232.294,192.315 232.039 C 192.315 231.869,193.538 231.137,195.033 230.412 C 201.132 227.454,208.052 219.213,208.058 214.898 C 208.059 214.168,204.449 204.738,199.087 191.468 C 194.152 179.253,189.998 168.959,189.857 168.591 C 189.619 167.970,189.913 167.930,194.051 168.029 L 198.500 168.135 204.184 183.318 C 207.310 191.668,210.421 200.314,211.097 202.530 C 212.548 207.289,212.967 207.476,214.033 203.843 C 214.472 202.348,217.296 193.871,220.309 185.005 C 223.322 176.139,225.872 168.632,225.976 168.322 C 226.103 167.943,226.040 167.882,225.780 168.135 C 225.568 168.341,222.568 176.945,219.113 187.254 C 215.658 197.563,212.799 206.040,212.759 206.090 C 212.719 206.141,211.815 203.526,210.750 200.280 C 209.685 197.033,206.561 188.388,203.807 181.068 L 198.801 167.760 193.893 167.656 L 188.984 167.551 196.303 185.650 M78.148 183.880 C 78.148 192.746,78.197 196.319,78.256 191.821 C 78.316 187.322,78.316 180.068,78.256 175.701 C 78.196 171.333,78.147 175.014,78.148 183.880 M86.769 183.318 C 86.769 191.874,86.819 195.375,86.879 191.097 C 86.939 186.818,86.939 179.817,86.879 175.539 C 86.819 171.261,86.769 174.761,86.769 183.318 M136.199 170.009 C 136.201 171.246,136.271 171.707,136.354 171.034 C 136.438 170.360,136.436 169.348,136.350 168.784 C 136.265 168.221,136.197 168.772,136.199 170.009 M143.667 169.072 C 143.667 169.794,143.744 170.089,143.839 169.728 C 143.933 169.367,143.933 168.777,143.839 168.416 C 143.744 168.055,143.667 168.351,143.667 169.072 M271.415 170.947 L 271.415 173.946 265.042 173.946 L 258.669 173.946 258.669 188.735 C 258.669 209.363,259.176 210.792,266.436 210.626 L 268.978 210.568 265.979 210.330 C 262.495 210.054,261.450 209.497,260.146 207.220 L 259.231 205.623 259.119 189.972 L 259.006 174.321 265.398 174.321 L 271.790 174.321 271.790 171.134 C 271.790 169.381,271.706 167.948,271.603 167.948 C 271.500 167.948,271.415 169.297,271.415 170.947 M336.425 175.258 C 336.425 178.969,336.481 180.437,336.549 178.519 C 336.618 176.601,336.617 173.565,336.549 171.771 C 336.480 169.977,336.424 171.546,336.425 175.258 M136.549 205.342 L 136.457 236.926 140.769 236.926 L 145.080 236.926 145.080 223.558 L 145.080 210.190 147.493 212.508 C 150.151 215.060,153.601 216.904,156.326 217.230 L 158.013 217.431 156.082 216.931 C 152.844 216.093,149.960 214.444,147.679 212.128 C 144.524 208.924,144.705 208.249,144.705 223.243 L 144.705 236.551 140.771 236.551 L 136.837 236.551 136.738 205.155 L 136.640 173.758 136.549 205.342 M352.878 175.484 C 345.616 178.276,344.479 182.010,344.594 202.696 L 344.671 216.495 344.905 201.125 C 345.178 183.155,345.253 182.726,348.752 178.930 C 350.528 177.003,353.264 175.492,355.738 175.074 C 357.297 174.810,357.333 174.781,356.139 174.759 C 355.417 174.746,353.950 175.072,352.878 175.484 M322.536 190.253 C 322.537 192.315,322.600 193.111,322.676 192.021 C 322.752 190.932,322.751 189.245,322.674 188.272 C 322.597 187.300,322.535 188.191,322.536 190.253 M279.731 193.814 C 279.634 201.092,281.376 205.894,285.814 210.586 C 289.154 214.117,295.257 217.494,298.143 217.407 C 298.597 217.394,298.077 217.142,296.986 216.849 C 286.640 214.064,280.628 206.218,280.051 194.752 L 279.788 189.503 279.731 193.814 M182.675 191.753 C 182.678 192.784,182.751 193.161,182.837 192.591 C 182.923 192.021,182.921 191.178,182.832 190.716 C 182.743 190.255,182.672 190.722,182.675 191.753 M287.940 195.595 C 287.972 197.555,288.154 197.397,288.370 195.220 C 288.447 194.447,288.374 193.814,288.210 193.814 C 288.045 193.814,287.923 194.616,287.940 195.595 M182.288 195.876 C 182.292 196.701,182.369 196.994,182.458 196.528 C 182.548 196.062,182.544 195.387,182.451 195.028 C 182.357 194.670,182.283 195.052,182.288 195.876 M181.503 199.625 C 179.562 208.377,173.005 214.987,164.386 216.879 C 162.564 217.279,162.386 217.376,163.449 217.393 C 168.448 217.469,175.942 212.436,179.126 206.863 C 180.502 204.455,182.280 199.299,182.119 198.183 C 182.053 197.731,181.783 198.364,181.503 199.625 M288.419 198.741 C 289.392 206.083,296.499 211.135,305.657 210.995 L 309.841 210.931 304.967 210.707 C 296.530 210.321,291.638 206.975,289.120 199.866 C 288.478 198.054,288.287 197.747,288.419 198.741 M87.024 199.838 C 86.770 204.620,91.088 209.764,95.650 210.115 C 96.754 210.200,97.235 210.192,96.720 210.097 C 91.084 209.060,88.269 206.009,87.232 199.813 L 87.075 198.875 87.024 199.838 M78.390 201.125 C 78.207 208.413,84.570 216.481,91.097 217.236 L 92.784 217.431 90.909 216.936 C 84.361 215.209,80.355 210.432,78.905 202.624 C 78.637 201.181,78.405 200.506,78.390 201.125 M110.590 208.769 C 110.590 209.495,106.906 213.148,104.797 214.512 C 102.206 216.189,99.554 217.040,95.602 217.462 L 92.784 217.764 95.986 217.622 C 101.871 217.360,107.627 214.292,110.301 209.992 L 111.153 208.622 111.378 210.309 L 111.602 211.996 111.659 210.216 C 111.702 208.858,111.582 208.435,111.153 208.435 C 110.843 208.435,110.590 208.585,110.590 208.769 M316.214 209.047 C 315.389 209.359,313.618 209.839,312.277 210.114 C 310.937 210.389,310.278 210.630,310.812 210.649 C 311.695 210.681,316.518 209.574,317.917 209.019 C 318.375 208.837,318.594 209.265,318.966 211.065 C 319.225 212.317,319.526 213.574,319.635 213.858 C 319.901 214.552,318.926 215.024,315.009 216.098 C 313.197 216.596,312.086 217.015,312.539 217.030 C 313.439 217.060,319.410 215.277,319.876 214.839 C 320.341 214.403,318.838 208.633,318.238 208.551 C 317.949 208.511,317.038 208.734,316.214 209.047 M269.805 210.197 C 270.532 210.338,270.647 210.635,270.763 212.676 L 270.896 214.995 270.968 212.465 L 271.040 209.934 270.009 209.985 C 269.152 210.028,269.117 210.063,269.805 210.197 M119.213 213.871 L 119.213 216.307 115.672 216.307 L 112.131 216.307 111.991 214.527 L 111.850 212.746 111.783 214.714 L 111.715 216.682 115.651 216.682 L 119.588 216.682 119.588 214.058 C 119.588 212.615,119.503 211.434,119.400 211.434 C 119.297 211.434,119.213 212.530,119.213 213.871 M52.216 217.619 C 52.219 218.650,52.292 219.028,52.378 218.458 C 52.464 217.888,52.462 217.044,52.373 216.583 C 52.284 216.122,52.213 216.589,52.216 217.619 M269.166 216.514 C 268.238 216.779,266.888 217.024,266.167 217.057 C 265.445 217.089,265.091 217.210,265.380 217.324 C 266.064 217.595,270.975 216.716,271.249 216.274 C 271.499 215.869,271.362 215.885,269.166 216.514 M309.747 217.316 C 310.108 217.410,310.698 217.410,311.059 217.316 C 311.420 217.221,311.125 217.144,310.403 217.144 C 309.681 217.144,309.386 217.221,309.747 217.316 M159.049 217.701 C 159.619 217.787,160.463 217.785,160.924 217.696 C 161.385 217.607,160.918 217.536,159.888 217.539 C 158.857 217.542,158.479 217.615,159.049 217.701 M301.500 217.710 C 302.891 217.782,305.169 217.782,306.560 217.710 C 307.952 217.638,306.813 217.579,304.030 217.579 C 301.246 217.579,300.108 217.638,301.500 217.710 M51.618 221.181 C 50.771 226.247,47.241 229.479,41.368 230.566 L 39.550 230.903 41.528 230.744 C 47.195 230.291,52.722 224.826,52.033 220.357 C 51.944 219.777,51.807 220.048,51.618 221.181 M39.825 233.552 C 39.825 234.274,39.902 234.569,39.996 234.208 C 40.090 233.847,40.090 233.257,39.996 232.896 C 39.902 232.535,39.825 232.830,39.825 233.552 M40.169 236.082 C 40.113 237.284,40.135 237.300,41.706 237.238 L 43.299 237.175 41.916 237.029 C 40.749 236.906,40.509 236.725,40.379 235.874 C 40.239 234.960,40.219 234.980,40.169 236.082 M334.770 247.985 C 333.860 248.913,333.199 249.672,333.302 249.672 C 333.405 249.672,334.235 248.913,335.145 247.985 C 336.056 247.057,336.717 246.298,336.613 246.298 C 336.510 246.298,335.681 247.057,334.770 247.985 M305.892 296.064 L 303.843 298.219 305.998 296.170 C 308.001 294.267,308.325 293.908,308.047 293.908 C 307.989 293.908,307.019 294.878,305.892 296.064 M191.101 295.298 C 191.567 295.388,192.242 295.384,192.600 295.290 C 192.959 295.197,192.577 295.123,191.753 295.127 C 190.928 295.132,190.635 295.208,191.101 295.298 M207.596 295.298 C 208.062 295.388,208.737 295.384,209.095 295.290 C 209.454 295.197,209.072 295.123,208.247 295.127 C 207.423 295.132,207.129 295.208,207.596 295.298 M89.902 331.038 C 103.134 332.232,114.007 341.611,116.176 353.702 C 116.398 354.939,116.657 356.373,116.752 356.888 C 116.847 357.404,116.856 356.729,116.773 355.389 C 115.984 342.685,103.588 331.411,89.784 330.843 L 86.036 330.689 89.902 331.038 M80.600 331.901 C 51.855 340.484,53.782 381.509,83.210 387.462 C 98.961 390.649,115.825 378.339,116.776 362.960 L 116.931 360.450 116.591 362.829 C 113.341 385.575,86.391 395.422,69.525 380.025 C 52.221 364.229,60.913 335.369,84.161 331.427 C 85.743 331.159,85.831 331.105,84.724 331.085 C 84.002 331.072,82.146 331.439,80.600 331.901 M197.859 339.922 C 199.156 339.995,201.180 339.995,202.358 339.920 C 203.535 339.846,202.474 339.786,200.000 339.787 C 197.526 339.788,196.562 339.848,197.859 339.922 " stroke="none" fill="#b6cde5" fill-rule="evenodd"></path></g></svg>