<?xml version="1.0" standalone="no"?>
<!DOCTYPE svg PUBLIC "-//W3C//DTD SVG 20010904//EN"
 "http://www.w3.org/TR/2001/REC-SVG-20010904/DTD/svg10.dtd">
<svg version="1.0" xmlns="http://www.w3.org/2000/svg"
 width="1067.000000pt" height="1067.000000pt" viewBox="0 0 1067.000000 1067.000000"
 preserveAspectRatio="xMidYMid meet">

<g transform="translate(0.000000,1067.000000) scale(0.100000,-0.100000)"
fill="#000000" stroke="none">
<path d="M7210 6465 l0 -3465 505 0 505 0 0 3465 0 3465 -505 0 -505 0 0
-3465z"/>
<path d="M4050 8345 l0 -1045 505 0 505 0 0 1045 0 1045 -505 0 -505 0 0
-1045z"/>
<path d="M2440 4205 l0 -3465 505 0 505 0 0 3465 0 3465 -505 0 -505 0 0
-3465z"/>
<path d="M5630 6625 l0 -1045 505 0 505 0 0 1045 0 1045 -505 0 -505 0 0
-1045z"/>
<path d="M4057 5103 c-4 -3 -7 -474 -7 -1045 l0 -1038 505 0 505 0 0 1045 0
1045 -498 0 c-274 0 -502 -3 -505 -7z"/>
<path d="M5637 4973 c-4 -3 -7 -226 -7 -495 l0 -488 505 0 505 0 0 495 0 495
-498 0 c-274 0 -502 -3 -505 -7z"/>
<path d="M5632 2338 l3 -1043 503 -3 502 -2 0 1045 0 1045 -505 0 -505 0 2
-1042z"/>
</g>
</svg>
