<svg id="svg" version="1.1" xmlns="http://www.w3.org/2000/svg" xmlns:xlink="http://www.w3.org/1999/xlink" width="400" height="400" viewBox="0, 0, 400,400"><g id="svgg"><path id="path0" d="M270.665 157.638 L 270.665 287.535 289.410 287.535 L 308.154 287.535 308.154 157.638 L 308.154 27.741 289.410 27.741 L 270.665 27.741 270.665 157.638 M152.202 87.348 L 152.202 126.336 170.947 126.336 L 189.691 126.336 189.691 87.348 L 189.691 48.360 170.947 48.360 L 152.202 48.360 152.202 87.348 M91.471 242.362 L 91.471 372.259 110.216 372.259 L 128.960 372.259 128.960 242.362 L 128.960 112.465 110.216 112.465 L 91.471 112.465 91.471 242.362 M211.434 151.453 L 211.434 190.440 230.178 190.440 L 248.922 190.440 248.922 151.453 L 248.922 112.465 230.178 112.465 L 211.434 112.465 211.434 151.453 M152.202 247.798 L 152.202 286.785 170.947 286.785 L 189.691 286.785 189.691 247.798 L 189.691 208.810 170.947 208.810 L 152.202 208.810 152.202 247.798 M211.434 312.277 L 211.434 351.265 230.178 351.265 L 248.922 351.265 248.922 312.277 L 248.922 273.290 230.178 273.290 L 211.434 273.290 211.434 312.277 " stroke="none" fill="#0c0454" fill-rule="evenodd"></path><path id="path1" d="M81.350 0.611 C 38.920 6.366,6.109 39.361,0.576 81.837 C -0.297 88.544,-0.297 311.456,0.576 318.163 C 6.136 360.850,39.150 393.864,81.837 399.424 C 88.544 400.297,311.456 400.297,318.163 399.424 C 360.846 393.864,393.864 360.846,399.424 318.163 C 400.297 311.456,400.297 88.544,399.424 81.837 C 393.863 39.147,360.853 6.137,318.163 0.576 C 311.747 -0.259,87.524 -0.226,81.350 0.611 M308.154 157.638 L 308.154 287.535 289.222 287.535 L 270.291 287.535 270.291 157.638 L 270.291 27.741 289.222 27.741 L 308.154 27.741 308.154 157.638 M189.691 87.160 L 189.691 126.336 170.759 126.336 L 151.828 126.336 151.828 87.160 L 151.828 47.985 170.759 47.985 L 189.691 47.985 189.691 87.160 M129.335 242.362 L 129.335 372.259 110.403 372.259 L 91.471 372.259 91.471 242.362 L 91.471 112.465 110.403 112.465 L 129.335 112.465 129.335 242.362 M248.922 151.640 L 248.922 190.815 229.991 190.815 L 211.059 190.815 211.059 151.640 L 211.059 112.465 229.991 112.465 L 248.922 112.465 248.922 151.640 M189.691 167.573 L 189.691 185.942 170.759 185.942 L 151.828 185.942 151.828 167.573 L 151.828 149.203 170.759 149.203 L 189.691 149.203 189.691 167.573 M189.691 247.610 L 189.691 286.785 170.759 286.785 L 151.828 286.785 151.828 247.610 L 151.828 208.435 170.759 208.435 L 189.691 208.435 189.691 247.610 M248.922 231.865 L 248.922 250.422 229.991 250.422 L 211.059 250.422 211.059 231.865 L 211.059 213.308 229.991 213.308 L 248.922 213.308 248.922 231.865 M248.922 312.465 L 248.922 351.640 229.991 351.640 L 211.059 351.640 211.059 312.465 L 211.059 273.290 229.991 273.290 L 248.922 273.290 248.922 312.465 " stroke="none" fill="#e4e4e4" fill-rule="evenodd"></path><path id="path2" d="M211.059 231.865 L 211.059 250.422 229.991 250.422 L 248.922 250.422 248.922 231.865 L 248.922 213.308 229.991 213.308 L 211.059 213.308 211.059 231.865 " stroke="none" fill="#fc058c" fill-rule="evenodd"></path><path id="path3" d="M151.828 167.573 L 151.828 185.942 170.759 185.942 L 189.691 185.942 189.691 167.573 L 189.691 149.203 170.759 149.203 L 151.828 149.203 151.828 167.573 " stroke="none" fill="#fccc04" fill-rule="evenodd"></path><path id="path4" d="M270.476 157.638 C 270.476 229.185,270.519 258.398,270.572 222.556 C 270.624 186.715,270.624 128.177,270.572 92.472 C 270.519 56.767,270.476 86.092,270.476 157.638 M151.920 87.254 L 152.011 126.523 152.109 87.445 L 152.206 48.367 171.042 48.266 L 189.878 48.165 170.853 48.075 L 151.828 47.985 151.920 87.254 M129.145 242.362 C 129.145 313.908,129.188 343.121,129.241 307.280 C 129.294 271.438,129.294 212.900,129.241 177.195 C 129.188 141.491,129.145 170.815,129.145 242.362 M211.151 151.546 L 211.059 190.815 230.084 190.725 L 249.110 190.635 230.274 190.534 L 211.437 190.434 211.340 151.355 L 211.243 112.277 211.151 151.546 M151.920 247.704 L 152.011 286.973 152.109 247.895 L 152.206 208.817 171.042 208.716 L 189.878 208.615 170.853 208.525 L 151.828 208.435 151.920 247.704 M211.151 312.371 L 211.059 351.640 230.084 351.550 L 249.110 351.460 230.274 351.359 L 211.437 351.258 211.340 312.180 L 211.243 273.102 211.151 312.371 " stroke="none" fill="#4c3c7c" fill-rule="evenodd"></path></g></svg>
